<?xml version="1.0" encoding="UTF-8"?>
<svg id="Camada_2" data-name="Camada 2" xmlns="http://www.w3.org/2000/svg" viewBox="0 0 340.45 345.84">
  <defs>
    <style>
      .cls-1 {
        fill: #f3eeec;
      }

      .cls-2 {
        fill: #f6e3cb;
      }

      .cls-3 {
        fill: #f6e3ca;
      }

      .cls-4 {
        fill: #f6e3c9;
      }

      .cls-5 {
        fill: #f6e1c8;
      }

      .cls-6 {
        fill: #f6f5f0;
      }

      .cls-7 {
        fill: #f6f4f0;
      }

      .cls-8 {
        fill: #f7f6f0;
      }

      .cls-9 {
        fill: #f7f6ea;
      }

      .cls-10 {
        fill: #f7eee6;
      }

      .cls-11 {
        fill: #f7e3ca;
      }

      .cls-12 {
        fill: #f7e3cb;
      }

      .cls-13 {
        fill: #f2f2f2;
      }

      .cls-14 {
        fill: #f9f6ef;
      }

      .cls-15 {
        fill: #f8f4f2;
      }

      .cls-16 {
        fill: #f8f8f0;
      }

      .cls-17 {
        fill: #65d072;
      }

      .cls-18 {
        fill: #ebf3e8;
      }

      .cls-19 {
        fill: #e6ebf2;
      }

      .cls-20 {
        fill: #f5e2ca;
      }

      .cls-21 {
        fill: #f5e3c4;
      }

      .cls-22 {
        fill: #e5f5f3;
      }

      .cls-23 {
        fill: #faf8f3;
      }

      .cls-24 {
        fill: #efe4cb;
      }

      .cls-25 {
        fill: #988bbc;
      }

      .cls-26 {
        fill: #7eba9e;
      }

      .cls-27 {
        fill: #6a8993;
      }

      .cls-28 {
        fill: #9edba4;
      }

      .cls-29 {
        fill: #b4e5c3;
      }

      .cls-30 {
        fill: #b6a5ac;
      }

      .cls-31 {
        fill: #c1dfd6;
      }

      .cls-32 {
        fill: #c1b5b5;
      }

      .cls-33 {
        fill: #c1d5e2;
      }

      .cls-34 {
        fill: #b9ddca;
      }

      .cls-35 {
        fill: #334735;
      }

      .cls-36 {
        fill: #32494e;
      }

      .cls-37 {
        fill: #c0b5bc;
      }

      .cls-38 {
        fill: #c5aeac;
      }

      .cls-39 {
        fill: #cfe2d1;
      }

      .cls-40 {
        fill: #d0b3a5;
      }

      .cls-41 {
        fill: #cbbfc3;
      }

      .cls-42 {
        fill: #d1f5d6;
      }

      .cls-43 {
        fill: #d2b6a7;
      }

      .cls-44 {
        fill: #d1bba8;
      }

      .cls-45 {
        fill: #d6bba8;
      }

      .cls-46 {
        fill: #d4b4a3;
      }

      .cls-47 {
        fill: #d9cbca;
      }

      .cls-48 {
        fill: #d3b3a3;
      }

      .cls-49 {
        fill: #d3c2ba;
      }

      .cls-50 {
        fill: #d9dce8;
      }

      .cls-51 {
        fill: #c8b5a9;
      }

      .cls-52 {
        fill: #c8ad9f;
      }

      .cls-53 {
        fill: #a7e7c3;
      }

      .cls-54 {
        fill: #a7eaad;
      }

      .cls-55 {
        fill: #a89bad;
      }

      .cls-56 {
        fill: #140334;
      }

      .cls-57 {
        fill: #14063d;
      }

      .cls-58 {
        fill: #130238;
      }

      .cls-59 {
        fill: #130236;
      }

      .cls-60 {
        fill: #130437;
      }

      .cls-61 {
        fill: #13052f;
      }

      .cls-62 {
        fill: #170535;
      }

      .cls-63 {
        fill: #17063e;
      }

      .cls-64 {
        fill: #170637;
      }

      .cls-65 {
        fill: #202328;
      }

      .cls-66 {
        fill: #43546d;
      }

      .cls-67 {
        fill: #16053b;
      }

      .cls-68 {
        fill: #1b0b49;
      }

      .cls-69 {
        fill: #191919;
      }

      .cls-70 {
        fill: #9483b1;
      }

      .cls-71 {
        fill: #9486bf;
      }

      .cls-72 {
        fill: #a2bca6;
      }

      .cls-73 {
        fill: #9488be;
      }

      .cls-74 {
        fill: #6d9e92;
      }

      .cls-75 {
        fill: #6e6098;
      }

      .cls-76 {
        fill: #6e5e94;
      }

      .cls-77 {
        fill: #6daa8a;
      }

      .cls-78 {
        fill: #6f5e98;
      }

      .cls-79 {
        fill: #6f5f96;
      }

      .cls-80 {
        fill: #6f5d96;
      }

      .cls-81 {
        fill: #6f6098;
      }

      .cls-82 {
        fill: #6f6096;
      }

      .cls-83 {
        fill: #706394;
      }

      .cls-84 {
        fill: #716196;
      }

      .cls-85 {
        fill: #71609a;
      }

      .cls-86 {
        fill: #709c8e;
      }

      .cls-87 {
        fill: #9688bf;
      }

      .cls-88 {
        fill: #9688c1;
      }

      .cls-89 {
        fill: #9687bf;
      }

      .cls-90 {
        fill: #55437b;
      }

      .cls-91 {
        fill: #537a7a;
      }

      .cls-92 {
        fill: #527a7e;
      }

      .cls-93 {
        fill: #52797a;
      }

      .cls-94 {
        fill: #887ca8;
      }

      .cls-95 {
        fill: #705e99;
      }

      .cls-96 {
        fill: #4a7f4f;
      }

      .cls-97 {
        fill: #76679c;
      }

      .cls-98 {
        fill: #78a28c;
      }

      .cls-99 {
        fill: #716391;
      }

      .cls-100 {
        fill: #4d6169;
      }

      .cls-101 {
        fill: #547b7b;
      }
    </style>
  </defs>
  <g id="Camada_1-2" data-name="Camada 1">
    <g>
      <path class="cls-65" d="M41.21,345.8c-.48-8.86-.91-17.72-1.44-26.58-.71-11.77-1.52-23.53-2.23-35.3-.36-5.99-.62-11.99-.85-17.99-.07-1.77-.51-3.04-2.45-3.53-1.15-.29-2.21-.94-3.3-1.46-2.64-1.28-4.09-3.48-4.58-6.29-.48-2.78-.56-5.6-.27-8.41,.05-.47,.08-.9-.11-1.33-1.92-4.41-1.81-9.02-1.35-13.66,.08-.8-.06-1.41-.49-2.08-2.67-4.29-2.54-8.95-1.49-13.63,.53-2.35,2.55-3.57,4.8-4.69-5.32-3.64-4.53-8.61-3.22-13.6,.56-2.13,2.46-3.08,4.4-3.75,.97-.33,1.98-.63,2.99-.73,1.65-.17,2.04-.97,1.88-2.54-.68-6.6-1.26-13.22-1.88-19.83-.01-.11-.05-.23-.04-.34,.67-3.85-1.28-6.18-4.45-7.92-1.2-.65-2.17-1.7-3.32-2.45-1.47-.96-1.63-2.16-1.07-3.71,.92-2.52,2.42-4.7,4.07-6.75,1.35-1.68,1.95-3.37,1.48-5.52-.28-1.28-.3-2.62-.32-3.94-.02-1.64-.73-2.78-2.09-3.68-1.82-1.2-3.55-2.53-5.31-3.82-1.4-1.02-1.72-2.28-1-3.91,.85-1.95,1.71-3.89,2.89-5.66,.91-1.36,.52-2.76,.39-4.17-.06-.66-.76-.65-1.19-.83-3.72-1.55-7.35-3.27-10.4-5.97C4.78,105.99,.86,98.89,.14,90.15c-.93-11.23,2.91-20.44,11.72-27.49,9.57-7.66,23.7-8.44,34.2-1.97,10.96,6.76,16.9,19.51,14.8,31.88-1.66,9.81-6.45,17.53-15.19,22.6-1.57,.91-2,3.3-.87,4.81,1.14,1.51,2.37,2.95,3.52,4.45,1.32,1.72,1.62,3.51,.24,5.37-1.03,1.38-1.94,2.86-3.1,4.12-1.29,1.41-1.43,2.91-.93,4.61,.79,2.68,1.58,5.37,1.54,8.21,0,.66,.4,.99,.86,1.38,1.5,1.24,3,2.49,4.42,3.83,2,1.87,2.22,3.84,.66,6.11-1.43,2.08-2.96,4.09-4.47,6.12-.65,.87-.83,1.77-.72,2.88,.52,5.36,.81,10.74,1,16.12,.06,1.77,.23,3.54,.37,5.5,2.61-1.22,4.77-.22,6.86,1.1,2.82,1.78,5.73,3.42,8.84,4.62,2.75,1.06,3.99,3.09,4.51,5.76,1.02,5.26,2.88,10.23,5.28,14.99,1.13,2.24,.99,4.54,.89,6.88-.16,3.71-.33,7.42-.54,11.13-.05,.84,.4,1.27,1.01,1.63,3.37,1.97,6.74,3.93,10.1,5.91,.47,.28,.94,.37,1.47,.3,2.24-.29,4.29,.28,6.3,1.26,3.61,1.75,7.28,3.39,10.88,5.17,.74,.37,1.33,.41,2.1,.2,2.15-.58,4.26-1.36,6.51-1.55,1.4-.12,2.71,.24,3.98,.8,5.1,2.22,10.2,4.46,15.08,7.14,2.2,1.2,4.47,1.72,6.94,1.31,.37-.06,.99,.06,1.07-.38,.5-2.57,2.98-2.96,4.63-4.21,.94-.71,1.73-1.15,1.67-2.61-.06-1.43,.93-2.68,1.74-3.86,2.83-4.12,5.64-8.24,8.54-12.31,1.01-1.42,1.14-2.65,.26-4.21-1.49-2.65-2.58-5.47-3.1-8.5-.2-1.14-.07-2.14,.35-3.16,2.36-5.71,5.22-11.22,6.95-17.19,.32-1.11,1.34-1.62,2.28-1.96,2.58-.93,3.6-2.77,3.91-5.4,.27-2.29,.65-4.52,.04-6.8-.36-1.34-.03-2.37,1.34-3.12,2.21-1.22,4.29-2.66,6.47-3.94,1.01-.59,1.09-1.18,.56-2.19-2.14-4.05-3.4-8.34-3.7-12.95-.37-5.76,1.41-10.94,3.8-16,.66-1.39,1.3-2.78,2.07-4.41-3.08,.32-5.73-.13-8.14-1.62-.49-.3-.95-.64-1.4-1-.61-.48-.85-.88-.13-1.63,2.13-2.25,3.24-5.11,4.52-7.87,.44-.94,.11-1.42-.74-1.83-1.71-.83-3.27-1.9-4.79-3.04-1.26-.94-1.48-1.93-.59-3.37,2.38-3.85,4.82-7.68,6.37-11.97,.05-.15,.07-.32,.12-.62-6.88-.66-13.62-1.88-20.34-3.25-13.78-2.81-27.41-6.13-40.43-11.61-2.86-1.2-5.63-2.59-8.17-4.39-.19-.13-.37-.27-.55-.41-4.01-3.13-3.83-5.95,.59-8.46,5.45-3.09,11.4-4.97,17.32-6.86,14.23-4.53,28.65-8.44,43.04-12.46,.11-.03,.22-.07,.33-.08,4.17-.55,6.79-2.65,7.21-7.07,.18-1.91,2.29-2.98,2.35-5.05,.03-1.12,.46-2.23,.62-3.36,.24-1.64,1.24-2.62,2.75-2.9,1.6-.3,2.33-1.36,3.2-2.56,4.38-6.1,9.62-11.39,15.46-16.1,12.69-10.23,27.15-17.2,42.33-22.83,.86-.32,1.72-.62,2.58-.93,3.64-.71,7.24,.01,10.67,.91,2.52,.66,5.11,1.24,7.61,2.22,2.65,1.04,5.6,1.61,8.48,2.13,.99,.18,1.71,.64,2.16,1.52,.44,.88,.09,1.4-.84,1.3-1.52-.17-3.09-.38-4.5-.89-1.47-.53-2.88-.95-4.45-1.04-2.01-.11-3.8-1.14-5.72-1.68-.8-.23-1.54-.52-2.19,.25-.85,.38-1.72,.16-2.52-.07-4.33-1.23-8.39-.28-12.38,1.41-6.28,2.66-12.6,5.24-18.66,8.4-10.82,5.63-20.65,12.57-29.05,21.46-1.56,1.65-2.92,3.48-4.27,5.29,.42-.65,1.13-.6,1.75-.75,4.26-.55,8.49-1.4,12.81-1.46,1.22-.02,2.38-.41,3.4-1.1,1.93-1.31,4.06-1.52,6.28-1.1,5.36,1,10.71,2.03,16.04,3.21,3.21,.71,5.46,2.34,5.91,5.83,.15,1.2,1.11,1.48,2.06,1.77,4.22,1.32,8.51,2.37,12.75,3.62,4.53,1.41,9.04,2.86,13.59,4.21,1.55,.46,1.65,.27,1.52-1.32-.14-1.64-.84-2.72-2.41-3.38-2.53-1.06-4.84-2.57-7.35-3.68-.58-.25-1.1-.6-1.54-1.07-1.05-2.19-2.47-4.2-3.23-6.54,.35-1.22,1.18-.63,1.8-.41,2.93,1.05,5.91,1.87,8.98,2.34,3.35,.51,4.9-.5,5.68-3.66,.03-.18,.08-.35,.13-.53,.29-1.26,.1-2.53,.12-3.8-.02-.19-.01-.37,0-.56-.02-1.38,.15-2.76-.14-4.13-.03-.23-.02,.06-.04-.17-.06-.72-.37-1.77,.42-1.98,.82-.22,1.03,.87,1.3,1.52,1.31,3.11,2.46,6.28,3.34,9.55,.11,.42-.08,1.38,.95,.86,2.74-3.19,3.79-7.13,4.84-11.05,.22-.83,.33-1.68,.45-2.54,.05-.34,.13-.8,.49-.83,.57-.05,.73,.51,.83,.93,.64,2.68,1.18,5.37,.79,8.15-.28,2-.8,3.92-1.89,5.99,3.08-.94,5.77-2.06,7.98-4.11,1.05-.97,2.05-1.99,3.01-3.06,.51-.57,1.06-1.06,1.91-.94,1.79,1.02,1.85,1.6,.44,4.03-.09,.14-.21,.27-.28,.43-.21,.47,.14,.28,.31,.24,.67-.17,1.32-.38,1.93-.72,.75-.42,1.48-.88,2.22-1.32,.7-.42,1.46-1.36,2.27-.66,.78,.66,.08,1.62-.19,2.4-.65,1.91-1.63,3.67-2.62,5.42-.46,.81-.49,1.45,.06,2.2,2.69,3.61,5.61,6.98,9.57,9.27,.53,.3,1.01,.81,1.72,.56,.55-.33,.79-1.28,1.68-.88,.8,.36,.89,1.13,.92,1.9,.09,1.88-.16,3.77,.42,5.64,.29,.95-.32,1.61-1.21,2-.53,.24-1.33,.21-1.29,1.12-3.66,1.65-7.49,2.83-11.28,4.1-1.51,.51-2.09-.55-2.55-1.64-1.39-3.26-2.35-6.66-2.8-10.35,1.2,1.44,2.41,2.87,3.61,4.31q1.99,2.4,3.5-.31,1.65-2.95-.49-5.67c-2.53-3.19-5.12-6.34-7.58-9.59-1.01-1.34-2.44-1.12-3.61-1-5.36,.51-10.62,1.67-15.84,3.02-1.16,.3-1.32,.92-1.16,2.02,1.21,8.37,2.62,16.69,4.3,24.98,.25,1.22,.78,1.75,1.85,2.12,11.1,3.86,22.1,7.98,32.84,12.75,6.96,3.09,13.95,6.15,20.46,10.16,1.22,.75,2.42,1.54,3.43,2.58,1.97,2.02,1.75,3.84-.7,5.29-2.8,1.66-5.92,2.45-9.08,3.01-9.83,1.77-19.77,2.5-29.74,2.86-7.17,.26-14.34,.41-21.51,.53-1.18,.02-1.63,.44-2.05,1.51-1.8,4.54-4.61,8.43-7.97,11.96-.19,.2-.49,.32-.46,.74,7.36-1.12,14.76-1.63,22.2-1.43,3.39,.09,6.72,.54,10,1.44,1.07,.29,1.75,.88,2.22,1.92,1.57,3.44,3.25,6.83,4.85,10.26,.43,.92,.74,1.24,1.87,.71,4.67-2.17,9.43-4.13,14.12-6.25,1.4-.64,2.37-.45,3.5,.62,5.34,5.05,5.37,5.02,5.55,12.62,.03,1.49,.18,3,.05,4.47-.2,2.21,.6,3.95,1.91,5.66,3.89,5.11,7.78,10.22,11.45,15.5,1.01,1.46,1.17,2.72,.48,4.42-2.35,5.72-4.46,11.53-6.78,17.25-.52,1.27-.29,2.12,.43,3.12,2.45,3.39,4.78,6.87,7.29,10.22,2.3,3.06,2.91,6.07,.64,9.42-.67,.98-.93,2.24-1.59,3.23-1.53,2.27-1.37,4.45-.42,6.94,2.1,5.53,3.96,11.16,5.91,16.76v46.88c-.93-.1-.87-.96-1.08-1.53-2.86-7.63-5.83-15.2-9.34-22.56-4.11-8.59-10.23-15.07-18.67-19.51-7.31-3.85-15.1-6.36-22.92-8.82-9.25-2.9-18.6-5.45-27.88-8.25-.68-.21-1.81-.26-1.71-1.12,.12-1.04,1.28-.61,2.01-.7,3.02-.36,6.06-.38,9.1-.38,11.99,.55,23.82,2.18,35.42,5.34,5.14,1.41,10.15,3.22,15.02,5.41,5.07,2.53,10.18,4.98,14.84,8.86-2.42-7.78-4.51-15.29-7.37-22.55-.87-2.21-2.35-3.91-4.03-5.5-4.54-4.3-9.73-7.67-15.21-10.59-3.75-2-7.82-1.68-11.81-1.26-10.69,1.14-20.89,4.32-31.02,7.71-2.18,.73-4.39,1.34-6.6,1.98-.17,.06-.35,.09-.53,.12-.74,.05-1.48,.07-2.18,.32-3.16,.65-6.35,1.09-9.58,1.15-4.47-.19-8.94,.05-13.41,.3-.91,.05-1.82,.02-3.04-.59,5.9,2.52,11.41,4.89,16.76,7.62,1.89,.97,3.71,2.07,5.56,3.1,1.41,.78,2.47,1.85,3.12,3.32,2.63,4.96,5.12,9.97,7.08,15.24,1.06,2.85,1.86,5.77,2.7,8.69,.14,.47,.47,1.12-.09,1.41-.63,.32-1.03-.33-1.33-.78-2.24-3.32-4.44-6.67-6.76-9.94-.83-1.17-1.71-2.29-2.53-3.47-2.88-4.63-6.12-9-9.27-13.44-.37-.51-.79-1.03-1.35-1.31-2.69-1.39-5.38-2.76-8.44-3.8-.06,1.24,.56,2.09,.88,3.02,.36,1.03,.75,2.05,1.05,3.09,.14,.49,.34,1.06-.12,1.45-.45,.38-1,.14-1.46-.07-1.57-.69-3.19-1.29-4.76-1.98-6.94-3.02-13.75-6.32-20.82-9.03-.46-.18-.99-.67-1.42-.26-.4,.38-.06,.99,.04,1.48,.69,3.25,1.36,6.51,2.06,9.76,6.62,32.99,13.83,65.85,20.85,98.75,.89,4.16,1.85,8.29,2.71,12.45,.14,.66,.41,1.33,.07,2.02h-6.2c-.51-.53-.63-1.2-.77-1.88-2.78-13.38-5.1-26.86-8.42-40.13-.12-.5-.28-.99-.24-1.39-.2,3.87-.63,7.86-1.15,11.83-.11,.82-.06,2.13-.99,2.12-.88,0-.83-1.33-.96-2.14-1.69-10.43-3-20.92-4.05-31.43-1.65-16.4-3.47-32.77-5.69-49.09-.46-3.41-1.04-6.81-1.78-10.18-.13-.6-.1-1.41-.75-1.65-.69-.25-1.1,.48-1.54,.9-1.41,1.35-2.71,2.82-4.29,3.98-2.15,1.57-3.2,3.55-2.32,6.24,.16,3.85,.06,7.7,.07,11.55,.01,11.14,0,22.29,.02,33.43,0,2.25-.24,4.47-.4,6.7-.04,.55,0,1.38-.67,1.4-.68,.01-.63-.82-.69-1.36-.37-3.54-.51-7.1-.71-10.65-.55-9.51-.86-19.03-1.36-28.54-.1-2.01,.08-4.02-.18-6.02-.27-1.96,.06-3.95-.24-6.08-1.38,.8-2.19,2.07-3.41,2.84-.95,.68-1.39,1.61-1.41,2.77-.01,.97-.23,1.92-.52,2.84-.15,.49-.39,1.01-1.01,1-.7-.01-.94-.55-1.05-1.14-.1-.51-.07-1.02-.03-1.53,.01-.18,.05-.36,.09-.53,.25-.66,.23-1.36,.21-2.05,.06-2.33-1.81-3.52-3.05-5.17-1.04,3.34-1.48,6.76-2.23,10.11-.25,1.04-.26,2.15-.89,3.09-.82,.69-1.44,1.92-2.85,1.15-.42-2.32,.45-4.48,.84-6.7,.88-3.95,1.32-7.98,2.16-11.95-.84,3.16-1.87,6.28-2.38,9.52-.53,2.44-1.32,4.82-1.77,7.28-2.06,9.23-3.93,18.51-5.76,27.79-2.24,11.36-4.4,22.74-7.27,33.97-.2,.78-.45,1.54-.71,2.3-.5,.92-.13,1.77,.21,2.62,2.12,5.32,4.31,10.6,7.84,15.04-.4-1.68-1.26-3.41-1.3-5.33,0-.17,.05-.34,.05-.51q0-2.23,2.37-2.17c1.63,1.53,2.81,3.43,4.13,5.2,3.13,4.18,6.22,8.38,9.52,12.43,.26,.31,.47,.65,.63,1.02,.18,.36,.37,.77,.84,.7,.45-.06,.56-.49,.65-.89,.22-.94,0-1.74-.48-2.58-1.11-1.99-.59-3.03,1.7-3.64,1.43,.75,2.16,2.17,3.22,3.27,2.01,2.1,4.22,4.03,6.02,6.34,.59,.76,1.45,1.07,2.35,1.31,3.65,.97,7.24,2.11,10.91,3,.59,.14,1.43,.05,1.55,1h-23.1c-1.22-.73-2.53-1.29-3.84-1.83-1.19-.5-1.99-.51-1.99,1.09,0,.29-.17,.54-.37,.75h-2.07c-2.85-.98-5.69-1.98-8.56-2.9-3.48-1.12-3.79-.98-5.37,2.24-.13,.26-.35,.45-.54,.66h-9.31c-.36-2.13,.23-4.21,.43-6.3,.4-4.17,.91-8.32,1.46-12.47,.14-1.02-.19-1.91-.71-2.77-1.62-2.71-3.06-5.52-4.57-8.29-.88-1.61-.88-3.16-.26-4.8,2.97-7.86,5.01-15.99,7.13-24.1,.59-2.25,.24-3.98-1.17-5.88-4.05-5.5-8.23-10.9-12.44-16.27-.95-.96-1.72-2.08-2.62-3.08-.48-.5-.99-.99-1.68-1.16-2.95-.72-5.89-1.5-8.91-1.84-1.05-.12-1.22,.33-.88,1.2,.25,.64,.51,1.28,.77,1.91,2.3,6.09,4.72,12.12,8.01,17.77,3.92,7.87,7.21,16,10.43,24.17,1.07,2.71,1.66,5.45,1.04,8.4-.5,2.36-.37,4.79-.35,7.2,.02,3.39-.31,6.75-.66,10.11-.06,.61-.02,1.28-.64,1.72-.81-.39-.76-1.22-.94-1.9-2.24-8.44-3.7-17.04-5.58-25.55-.87-3.93-1.94-7.79-3.17-11.62-.48-1.47-.94-2.95-1.16-4.1-.08-.61-.36-.41-.14-.48,.03,0,.06,.04,.07,.15,.26,4.81,.42,9.62,.1,14.43-.03,.5-.07,1.06-.72,1.22-.84-.66-.92-1.68-1.18-2.6-2.26-7.82-3.68-15.83-5.55-23.74-1.36-5.74-2.79-11.46-5.32-16.83q-2.33-5.13-7.6-7.34c-1.32-.55-2.58-1.26-3.95-1.7-.81-.26-1.62-.5-2.44-.7-.23-.05-.06,.34-.07,.11,2.79,.51,3.79,2.64,4.51,5.02,1.08,3.98,1.41,8.06,1.72,12.14-.03,1.08-.14,2.17,.2,3.23,.09,.42,.13,.84,.09,1.26-.31,1.36-.29,2.73-.08,4.1,.11,.68,.19,1.37,.15,2.06-.58,10.26-.05,20.54-.37,30.8-.22,7.06-.06,14.12-.37,21.16-.19,4.3-.18,8.6-.27,12.9-.02,.85,.08,1.74-.55,2.46h-4.83c-.22-.29-.28-.62-.28-.97,.06-8.88,.4-17.75,.57-26.63,.11-5.38,.22-10.76,.19-16.14-.03-4.7,.01-9.4,.04-14.1,.26-4.92,.34-9.85,.33-14.79-.01-4.48-.38-8.93-.67-13.39,.05-.45-.03-.91-.04-1.37-.03-1.87-.9-3-2.68-3.72-5.3-2.16-10.59-4.37-15.81-6.72-1.7-.76-2-.47-1.72,1.44,.14,.91,.22,1.82,.22,2.74,.49,5.44,.58,10.9,.35,16.34-.35,8.47-.66,16.95-1.22,25.41-.37,5.6-.55,11.22-.84,16.83-.38,7.38-.84,14.76-1.23,22.14-.19,3.49-.5,6.98-.46,10.48,0,.85,.09,1.74-.54,2.46h-10.69c-.86-1.76-.81-3.71-.8-5.55,.06-7.48-.63-14.92-1.53-22.32-.56-4.61-1.82-9.12-2.92-13.64-1.86-7.59-3.52-15.22-5.56-22.76-.36-1.32-.87-2.48-1.91-3.38-2.26-1.95-4.61-3.8-7.01-5.57-.94-.69-1.82-.84-2.86-.21-.98,.59-.98,1.43-.86,2.4,.36,2.74,.32,5.5,.43,8.25,.3,7.45,.78,14.9,1.19,22.35,.48,8.88,1.04,17.75,1.55,26.63,.24,4.18,.38,8.37,.68,12.54,.03,.48-.07,.91-.39,1.28h-9.65c-.82-1.01-.83-2.23-.87-3.43-.28-7.78-.84-15.55-1.29-23.33-.29-5.03-.49-10.07-.82-15.09-.3-4.57-.55-9.14-.87-13.71-.27-3.88-.53-7.77-.77-11.66-.21-3.37-.38-6.75-.69-10.11-.05-.57-.05-1.15,.04-1.71,.32-1.39,1.16-2.46,2.16-3.45,1.34-1.33,2.68-2.67,4.27-4.28-2.44-.32-4.54-.95-6.78-.64-1.51,0-1.93,.76-1.85,2.2,.29,5.26,.58,10.53,.94,15.79,.34,5.03,.55,10.08,.83,15.11,.38,6.81,.69,13.63,1.22,20.43,.37,4.74,.49,9.5,.85,14.24,.42,5.49,.43,11,.94,16.48,.1,1.07,.32,2.19-.44,3.15h-4.14Z"/>
      <path class="cls-17" d="M234.93,345.8c-1.3-4.38-2.1-8.88-3.08-13.34-2.74-12.55-5.37-25.12-8.02-37.69-3.22-15.25-6.66-30.46-9.64-45.77-1.03-5.32-2.23-10.6-3.35-15.9-.05-.22,0-.46,.01-.69,.41-.9,1-.53,1.55-.19,.78,.49,1.45,1.12,2.18,1.67,8.61,6.5,17.46,12.64,26.75,18.13,.74,.44,1.42,.97,2.48,1.53-.61-2.56-1.36-4.86-2.06-7.15-1.17-3.84-2.2-7.72-3.62-11.48-.14-.37-.21-.77-.28-1.17-.18-1,.29-1.4,1.25-1.3,.58,.06,1.11,.29,1.64,.5,2.51,.97,4.97,2.09,7.47,3.11,1.22,.49,2.15,1.27,2.93,2.3,1.32,1.73,2.53,3.54,4.06,5.11,3.69,4.51,6.66,9.55,10.14,14.22-1.73-7.58-4.55-14.72-8.11-21.58-.58-1.12-1.15-2.24-1.72-3.36,.67-.61,1.42-.34,2.12-.15,11.14,3.02,22.54,4.85,33.78,7.4,2.63,.6,5.19,1.47,7.84,2,1.26,.25,1.93,1.14,2.4,2.25,2.07,4.86,3.84,9.83,5.59,14.8,2.4,6.82,4.64,13.69,6.88,20.57,2.67,8.24,5.1,16.56,7.23,24.96,2.98,11.8,5.6,23.68,7.59,35.68,.3,1.81,1.06,3.65,.42,5.55h-37.57c-.79-.63-.91-1.57-1.11-2.45-2-9.01-4.35-17.94-6.2-26.99-.07-.33-.27-.64-.27-.99-.37-1.31-.38-2.71-.85-4,.58,1.64,.51,3.43,1.13,5.07,1.6,8.45,2.66,16.98,3.84,25.49,.18,1.28,.56,2.58,.02,3.88h-18.96c-.6-.32-.9-.85-1.12-1.46-2.73-7.62-5.98-15.05-8.62-22.7-.65-1.88-1.82-3.43-3.12-4.91-2.01-2.28-3.8-4.75-5.83-7.02-1.26-2.9-2.02-5.97-3.14-8.92-2.32-6.12-4.32-12.34-6.64-18.19,1.41,10.64,3.15,21.49,4.77,32.35,1.39,9.3,2.89,18.59,4.34,27.89,.16,1.01,.46,2.05-.28,2.98h-14.82Z"/>
      <path class="cls-96" d="M329.38,345.8c-1.89-11.84-4.27-23.58-7.06-35.24-2.91-12.12-6.47-24.04-10.34-35.89-2.49-7.61-5.08-15.17-7.76-22.71-.94-2.64-2.07-5.21-3.08-7.82-.36-.93-.96-1.51-1.96-1.73-6.02-1.37-12.01-2.82-18.04-4.13-5.63-1.23-11.31-2.28-16.95-3.48-2.4-.51-4.76-1.24-7.14-1.85-.49-.13-1.01-.14-1.52-.21-1.44-3.08-4.57-4-7.21-5.48-5.73-3.23-11.92-5.51-18.19-8.62,5.77-.05,11.14-.56,16.53-.31-.2,.97-1.14,.48-1.68,.84,5.76,2.91,11.62,5.53,17.75,7.51,1.71,.55,3.48,.7,5.26,.8,.65,.04,1.56-.32,1.75,.8-3.58-.07-7.14,.2-10.75,.75,2.43,.75,4.84,1.53,7.28,2.25,8.41,2.48,16.87,4.82,25.24,7.44,7.94,2.48,15.76,5.27,22.97,9.58,8.8,5.26,14.04,13.28,17.99,22.41,2.85,6.57,5.42,13.25,7.94,19.95,0,17.92-.01,35.85,.03,53.77,0,1.18-.23,1.45-1.41,1.41-3.21-.1-6.43-.04-9.65-.04Z"/>
      <path class="cls-96" d="M117.39,345.8c.13-10.44,.12-20.89,.45-31.33,.22-7.06,.12-14.11,.26-21.17,.09-4.81,.16-9.61,.25-14.42,.04-2.28-.55-4.57,.06-6.85,1.14,.29,1.17,1.36,1.34,2.17,1.42,6.68,2.66,13.37,3.04,20.23,.4,7.33,.8,14.65,1.28,21.98,.12,1.88-.1,3.78,.21,5.62,1.46-4.35,2.61-8.8,3.11-13.41,.25-2.3,.08-4.59,.19-6.88,.05-1.01-.14-2.35,.97-2.72,1.02-.34,1.58,.9,2.31,1.51,2.87,2.4,3.56,5.64,4,9.16,1,7.97,2.43,15.89,3.87,23.8,.14,.79,.23,1.58,.29,2.38-.77-6.1-.34-12.23-.41-18.35-.05-4.19-.53-8.36-.41-12.56,.02-.56-.22-1.15,.28-1.62,.6-3.32,.34-6.67,.39-10,.03-2.24,0-4.47,0-6.92,5.56,14.51,7.09,29.85,11.18,44.89,.42-4.42,.75-8.51,.76-12.62,0-2.92,.24-5.82,.65-8.72,.35-2.48-.88-4.69-1.72-6.92-3-7.93-6.44-15.68-9.99-23.38,1.02-.6,1.51,.27,1.95,.83,1.58,1.98,3.36,3.77,5.24,5.44,2.77,2.46,4.29,5.45,4.62,9.11-.08-.84,.36-1.49,.73-2.15,.19-.35,.42-.69,.65-1.01,1.98-2.83,2.24-5.58,.49-8.78-2.92-5.37-5.62-10.88-8.54-16.26-.58-1.07-.81-1.95,.74-2.31,2.29,2.84,4.65,5.62,6.86,8.52,2.43,3.19,4.68,6.52,7.09,9.73,.56,.74,.67,1.4,.47,2.21-2.1,8.86-4.32,17.69-7.59,26.2-.64,1.67-.68,3.12,.28,4.71,1.65,2.75,3.12,5.62,4.69,8.42,.4,.72,.73,1.41,.63,2.26-.72,6.2-1.43,12.39-2.15,18.59-.03,.22-.16,.43-.24,.64h-38.26Z"/>
      <path class="cls-81" d="M195.25,232.72c-.57-2.2-.42-4.03,1.67-5.6,2.15-1.6,3.96-3.64,5.94-5.48,1.42-1.32,1.6-1.27,2.05,.66,1.1,4.68,1.81,9.44,2.42,14.21,1.04,8.06,2.08,16.11,3.03,24.18,.69,5.91,1.19,11.85,1.85,17.77,.81,7.28,1.64,14.56,2.55,21.82,.57,4.6,1.27,9.18,1.93,13.77,.1,.71,.27,1.42,.52,2.12,1.05-5.05,1.21-10.2,2.16-15.3,.77,3.26,1.62,6.51,2.3,9.79,2.38,11.48,4.69,22.96,7.03,34.45,.05,.22,.02,.46,.02,.69h-1.72c-.61-.31-.86-.89-1.11-1.48-2.27-5.26-4.22-10.65-6-16.09-.16-.49-.24-.99-.16-1.5-.95,5.79-1.53,11.63-2.23,17.46-.07,.57-.07,1.15-.5,1.6h-6.2c-4.1-1.16-8.2-2.34-12.31-3.46-1.12-.31-2.09-.7-2.91-1.62-2.94-3.28-5.96-6.49-8.96-9.72-1.49-.9-2.19-2.44-3.05-3.83-1.69-2.72-2.97-5.65-4.39-8.51-.3-.6-.83-1.33,.12-1.89,1.54,.94,2.59,2.41,3.8,3.68,4.12,4.31,8.02,8.83,12.18,13.1,1.4,1.44,2.64,3.03,4.05,4.46,.95,.96,1.8,1.24,3.01,.45,1.05-.69,2.18-1.29,3.31-1.84,1.55-.76,2.11-1.89,1.86-3.63-.83-5.79-1.56-11.6-2.19-17.42-.41-3.81-.66-7.65-.93-11.48-.31-4.4-.74-8.79-1.12-13.19-.32-3.77-.59-7.54-.91-11.31-.39-4.74-.69-9.49-.91-14.23-.27-5.79-.92-11.54-1.2-17.32-.23-4.69-.45-9.39-.98-14.06-.13-1.13-.62-1.33-1.6-1.08-.82,.21-1.68,.52-2.45-.17Z"/>
      <path class="cls-87" d="M113.21,259.25c.94,9.54,.87,19.09,.37,28.64-1.77,6.82-3.27,13.67-3.66,20.75-.45,8.17-.92,16.35-1.37,24.52-.19,3.48-.4,6.97-.66,10.45-.06,.82-.21,1.59-.84,2.19h-4.48c-1.07-2.13-.57-4.41-.44-6.59,.15-2.41,.11-4.82,.26-7.22,.41-6.83-.04-13.65-.03-20.47,.02-9.53-.77-19.02-1.58-28.52-.7-8.19-1.72-16.32-3.36-24.38-.16-.78-.15-1.57-.21-2.36-.12,6.5,.37,13.01-.24,19.51-.09,.92-.07,1.84-.06,2.75,.1,9.13-.52,18.24-.78,27.35-.21,7.28-.58,14.55-.98,21.83-.3,5.5-.74,10.99-1.02,16.48-.03,.58-.11,1.14-.52,1.6h-4.83c.02-7.05,.54-14.08,.94-21.11,.29-5.09,.51-10.19,.78-15.28,.53-9.89,1.14-19.78,1.59-29.67,.37-8.08,.63-16.16,.26-24.24-.06-1.26-.05-2.52-.07-3.78,.66-.29,1.26,0,1.81,.27,5.66,2.88,11.77,4.56,17.74,6.63,.49,.17,1,.26,1.39,.64Z"/>
      <path class="cls-95" d="M93.6,345.8c.25-7.82,.81-15.63,1.34-23.44,.18-2.68,.11-5.37,.31-8.06,.35-4.79,.22-9.62,.45-14.42,.39-8.01,.44-16.03,.76-24.03,.27-6.54,.08-13.07,.24-19.6,.01-.61,0-1.22,0-2.29,1.28,1.79,1.04,3.5,1.33,5.04,.88,4.64,1.64,9.31,2.35,13.99,.37,2.42,.56,4.87,.77,7.32,.48,5.69,1.11,11.37,1.34,17.07,.22,5.55,.63,11.1,.42,16.67-.11,3.15,.3,6.3,.27,9.44-.08,6.87-.41,13.73-.63,20.59-.02,.57,0,1.15,0,1.72h-8.96Z"/>
      <path class="cls-69" d="M249.76,345.8c-.09-3.68-.95-7.25-1.48-10.86-1.19-8.04-2.46-16.07-3.7-24.1-1.11-7.24-2.24-14.48-3.3-21.73-.39-2.66-.61-5.35-.7-8.08,3.9,9.4,7.26,18.99,10.52,28.61,1.64,2.63,2.02,5.7,2.91,8.58,2.58,8.31,4.67,16.76,7.19,25.09,.24,.81,.65,1.61,.28,2.49h-11.72Z"/>
      <path class="cls-28" d="M43.68,266.17c.61,9.84,1.24,19.67,1.84,29.51,.42,6.93,.82,13.85,1.22,20.78,.57,9.78,1.14,19.56,1.71,29.34h-3.1c-.43-7.69-.85-15.38-1.28-23.07-.5-8.88-.99-17.76-1.51-26.65-.49-8.31-1.03-16.63-1.54-24.94-.25-4.06-.46-8.11-.73-12.17-.04-.63,.17-.85,.72-.88,.74-.05,1.48-.09,2.22-.14,.87,2.7,1.16,5.43,.45,8.22Z"/>
      <path class="cls-75" d="M107.05,345.8c.23-2.78,.56-5.56,.67-8.34,.29-7.01,.81-14.01,1.14-21.02,.33-7.09,.68-14.22,2.35-21.18,.6-2.51,1-5.1,2.38-7.37,.02,9.06,.1,18.12-.22,27.18-.18,5.21-.01,10.42-.23,15.63-.18,4.47-.2,8.94-.31,13.41-.01,.57-.17,1.13-.26,1.69h-5.52Z"/>
      <path class="cls-96" d="M261.48,345.8c-3.46-12.05-6.92-24.11-10.38-36.16,2.09,1.96,3.55,4.46,5.56,6.48,3.39,3.42,4.26,8.04,5.94,12.27,2.3,5.8,4.55,11.61,6.82,17.42h-7.93Z"/>
      <path class="cls-58" d="M217.01,345.8c.1-3.89,.79-7.73,1.21-11.59,.3-2.72,.78-5.41,1.32-8.13,2.31,6.67,4.65,13.28,7.46,19.72h-10Z"/>
      <path class="cls-17" d="M284.53,315.19c1.67,6.93,3.34,13.85,4.99,20.78,.78,3.27,1.53,6.55,2.29,9.83h-3.45c-.68-4.85-1.35-9.71-2.04-14.55-.63-4.4-1.3-8.79-1.94-13.19-.09-.62-.12-1.25-.18-1.87-.01-.37-.54-.92,.33-1Z"/>
      <path class="cls-81" d="M164.96,345.8c.11-.56,.2-1.13,.34-1.68,.37-1.43,1.7-2.61,2.96-2.31,3.87,.91,7.71,1.94,11.18,3.99h-7.93c-.91-.37-1.91-.31-2.82-.65-.81-.3-1.44,.1-2,.65h-1.72Z"/>
      <path class="cls-88" d="M181.5,345.8c.22-3.17,.24-3.21,3.16-2,1.12,.46,2.44,.7,3.04,2h-6.2Z"/>
      <path class="cls-88" d="M166.68,345.8c.21-1.25,.95-1.56,2.06-1.13,.93,.35,1.84,.75,2.76,1.13h-4.83Z"/>
      <path class="cls-61" d="M251.82,5.42c.4-1.65,1.73-.97,2.45-.69,2.21,.86,4.33,1.92,6.78,1.87,.88-.02,1.63,.17,2.43,.59,1.88,1,4.04,.86,6.37,1.61-.69-1.34-1.15-2.04-2.45-2.26-3.07-.52-6.18-1.22-9.08-2.21-1.84-.63-3.77-.88-5.52-1.59-3.81-1.54-7.71-1.84-11.72-1.54-.09,0-.19-.23-.28-.36,1.98-1.34,4.14-.8,6.19-.4,5.51,1.06,11.03,2.1,16.46,3.49,12.78,3.27,25.1,7.8,36.71,14.15,1.04,.57,1.49,1.28,1.69,2.5,1.15,7.09,2.6,14.14,3.59,21.25,.56,4.02,1.36,8.01,1.65,12.08,.14,1.94,.45,3.92,.82,5.85,.25,1.29,.12,2-1.23,2.57-1.02,.43-2.11,.65-3.08,1.18-1.1-.77-.07-1.13,.37-1.23,1.86-.44,2.05-1.3,1.41-3.04-.44-1.21-.1-2.7-.12-4.06,0-.79,.2-1.74-.71-2.11-.91-.37-.54,1.13-1.33,1.11-.84-.55-.79-1.41-.81-2.25,.02-.34,.03-.85,.29-.94,1.66-.57,1.29-2.02,1.24-3.14-.08-1.83-.26-3.64,.06-5.46,.08-.46,.03-.92-.52-1.31-.74,.81-.98,1.82-1.21,2.85-.11,.5,.12,1.21-.71,1.35-.7-.59-.67-1.45-.76-2.22-.76-6.09-1.87-12.13-2.78-18.19-.14-.9,.05-1.84-.33-2.71-.51-1.01-1.55-1.34-2.45-1.81-5.97-3.12-12.22-5.55-18.57-7.79-7.43-2.62-15.07-4.49-22.75-6.19-.74-.16-1.64-.06-2.08-.94Z"/>
      <path class="cls-17" d="M246.29,52.49c-3.25-.86-6.51-1.7-9.75-2.58-1.54-.42-3.06-.95-4.6-1.4-.76-.22-1.05-.63-1.11-1.47-.22-2.91-1.62-4.63-4.46-5.38-5.87-1.53-11.85-2.51-17.8-3.66-2.02-.39-3.85,.24-5.53,1.37-.52,.35-1,.77-1.68,.81-4.91,.27-9.78,.98-14.66,1.6,.04-1.08,.99-1.48,1.62-2.07,3.99-3.72,8.13-7.27,12.52-10.52,9.07-6.71,18.51-12.82,28.96-17.19,5.4-2.26,11.19-2.91,16.93-3.78,8.72-1.32,16.87,.9,24.93,3.74,1,.35,2.38,.27,2.77,1.7-.23,4.56,.3,9.14-.39,13.69-.67,4.46-2.16,8.6-4.63,12.39-.17,.23-.33,.47-.52,.68-.11,.12-.27,.18-.53,.34-.95-4.62-2.68-8.89-4.54-13.27-.45,.69-.13,1.29-.21,1.84,.3,1.51-.11,3.05,.23,4.55,.02,.11,.02,.21,0,.32-.38,1.36,.13,2.79-.29,4.15h0c-.17,1.06-.77,1.48-1.86,1.5-2.85,.07-5.6-.49-8.35-1.1-2.51-.56-5.03-1.14-7.66-2.07,.18,1.44,1.26,2.43,1.27,3.74,1.06,2.05,2.11,4.11,3.17,6.16,.84,1.16,1.52,2.4,1.84,3.81,.37,1.63,.04,2.1-1.6,2.22-1.36,.1-2.72-.04-4.09-.11Z"/>
      <path class="cls-88" d="M195.25,232.72c1.12,.16,2.15-.24,3.2-.52,.85-.22,1.27-.09,1.34,.91,.37,5.7,.79,11.4,1.07,17.11,.27,5.41,.88,10.8,1.28,16.21,.15,2.05,.22,4.11,.34,6.16,.44,7.3,1.12,14.57,1.66,21.85,.27,3.7,.68,7.39,.88,11.1,.28,5.23,.76,10.46,1.53,15.66,.67,4.51,1.12,9.05,1.69,13.57,.06,.48-.1,.73-.45,1-2.03,1.6-4.45,2.55-6.6,3.94-.45,.29-.76,.03-1.04-.27-2.88-3.04-5.76-6.06-8.61-9.12-1.01-1.09-1.89-2.3-2.9-3.38-3.16-3.38-6.36-6.73-9.55-10.09-.87-.46-.64-1.25-.59-1.98,.67-8.35,1.68-16.66,2.66-24.98,1.27-10.77,2.43-21.54,3.63-32.32,.56-5.07,1-10.16,1.81-15.2,.79-1.96,3.57-3.67,5.6-3.44,.53,4.85,.54,9.72,.77,14.59,.51,10.76,1.08,21.52,1.76,32.27,.53-3.92,.57-7.85,.61-11.79,.12-13.37-.02-26.73-.17-40.1,0-.4,.05-.8,.08-1.2Z"/>
      <path class="cls-17" d="M304.55,200.97c-11.38,.18-22.55,2.04-33.72,3.98-10.92,1.9-21.83,3.84-32.77,5.62-5.02,.81-10.09,1.27-15.14,1.88-.89,.22-1.08-.18-.72-.9,.27-.54,.86-.73,1.39-.95,7.47-2.95,14.92-5.97,22.48-8.69,6.3-2.26,12.01-5.71,17.7-9.18,.83-.51,1.71-.92,2.54-1.41,.17-.16-.19-.39-.05-.2,.04,.05,.02,.08,0,.12-.38,.51-.98,.52-1.52,.67-9.18,2.39-18.06,5.6-26.76,9.39-5.73,2.5-11.23,5.56-17.26,7.34-.67,.2-1.5,.82-1.96-.35,4-2.32,7.99-4.63,11.99-6.95,1.63-1.16,3.33-2.21,5.11-3.1,3.27-1.63,6.41-3.51,9.68-5.15,7.79-3.4,15.71-6.48,23.73-9.28,1.49-.39,2.97-.84,4.49-1.1,.46-.08,.88-.24,1.25-.53,5.16-4.23,10.99-7.39,16.88-10.44,.56-.29,1.09-.62,1.61-.97,6.11-2.3,12.31-4.36,18.33-6.9,1.16-.49,2.29-1.07,3.5-1.42,1.14-.24,1.94-1.07,2.86-1.7,.52-.35,1.02-.77,1.59-.09,2.23,2.76,4.36,5.59,6.25,8.6-.15,.98-.96,.86-1.59,.87-7.99,.12-15.54,2.29-23.03,4.82-1.78,.6-3.67,.74-5.47,1.27-1.36,.35-2.73,.7-4.09,1.05-.18,.69,.37,.47,.67,.5,.6,.06,1.21-.09,1.8,.12,.31,.03,.63,.06,.94,.09,.81,.11,1.32,.36,1.21,1.38-.09,.78,.28,1.56,.51,2.33,.58,2.01,.26,2.55-1.77,2.96-.32,.07-.69-.08-.98,.17l-.12,.06h-.14c-.54,.23-.94,.63-1.16,1.17-.55,1.34-1.6,2.27-2.61,3.23-.25,.69-.19,1.26,.61,1.51,.68,.21,1.25,.06,1.61-.61,.16-.3,.3-.63,.64-.78,1.71-.52,3.28,.31,4.92,.49,4.87,.99,9.18,3.17,13.06,6.22,.77,.61,1.44,1.31,1.97,2.14,1.04,1.61,.68,2.36-1.27,2.57-1.08,.12-2.18,.01-3.26,.05-1.31,.04-2.63-.14-3.93,.12Z"/>
      <path class="cls-17" d="M258.37,91.76c-5.62-.73-11.25-1.42-16.86-2.19-8.84-1.21-17.68-2.43-26.51-3.74-6.74-.99-13.44-2.17-20.18-3.17-10.59-1.57-21.19-3.07-31.81-4.4-7.79-.98-15.6-1.57-23.41-2.25-.97-.08-1.94-.1-2.91-.15,.08-.71,.68-.68,1.16-.78,12.45-2.48,24.99-4.45,37.61-5.78,5.01-.53,10.04-1.06,15.1-1.13,.53,0,1.03-.06,1.48-.36,2.46-.79,4.91-.03,7.33,.16,8,.64,15.95,1.81,23.93,2.63,4.45,.46,8.89,1.05,13.31,1.75,1.29,.2,2.41,.74,3.38,1.59,5.79,5.13,11.87,9.94,17.5,15.27,.54,.51,1.16,.97,1.36,1.73,.09,.36,.22,.85-.47,.81Z"/>
      <path class="cls-39" d="M215.33,124.82c.49,.53,0,1.59,.69,1.83,.7,.24,.89-.73,1.27-1.17,6.18-7.12,9.48-15.19,8.09-24.78-.03-.22,0-.45,0-1.07,1.99,2.88,2.75,5.83,3.35,8.83,1.07,5.32,1.66,10.76,4.08,15.74,1.36,2.8,2.14,5.79,2.67,8.85,.12,.7,.1,1.42-.1,2.19-.96-1.73-1.92-3.47-2.88-5.2-2.01-2.41-3.14-5.41-5.52-8.07,.62,4.57,.46,8.81,.48,13.04,0,.57,.02,1.15-.01,1.72-.04,.56,.07,1.33-.56,1.51-.67,.2-.94-.53-1.19-1.02-.67-1.34-1.56-2.55-2.25-3.87-.21-.4-.38-.84-.88-1.21,1.84,8.94-1.99,16.11-6.82,22.97-.76,1.08-1.63,2.08-2.51,3.07-1.56,1.75-2.15,1.62-2.99-.64-.91-2.42-1.67-4.89-2.71-7.26-.46-1.05-1.09-2.02-1.51-3.11-.87,6.8-3.33,13.07-6.46,19.1-1.35,2.6-2.48,5.3-3.69,7.96-.28,.61-.46,1.43-1.31,1.4-.73-.02-.95-.76-1.23-1.3-1.31-2.48-2.59-4.98-3.04-7.8,.1,.78,.09,1.54-.48,2.17-.87,3.75-2.01,7.46-1.73,11.39,.07,1.01,.2,2.02,.3,3.03-1.44-.58-2.47-1.69-3.47-2.81-.49-.55-.92-1.15-1.47-1.65-3.37-3.99-5.39-8.49-5.18-13.82,.02-.46,0-.92,.13-1.36,.08-.27,.15-.58,.49-.62,.35-.04,.5,.26,.61,.51,.52,1.15,.66,2.39,1.02,3.6-1.73-5.26-.45-10.41,.55-15.57,.14-.74,.13-2.01,1-1.92,.85,.09,.55,1.33,.6,2.09,.28,3.87,1.5,7.51,2.67,11.16,.34,1.05,.75,2.09,1.04,3.33-.3-1.45-.82-2.67-1.13-3.94-.84-4.6-1.19-9.27-1.95-13.88-.18-1.11-.44-2.11-1.47-2.72,2.5-.7,5.13-.94,7.54-1.99,1.1-.48,2.35-.69,3.14-1.73,.58-.48,1.45-.61,1.75-1.43,.12,0,.23,0,.35,.01,2.75,2.14,5.97,2.82,9.34,3.07,1.81,0,3.6,.47,5.44,.04,3.57-.84,6.15-3.83,6.63-7.62,.43-3.37-.21-6.55-1.36-9.68,.23-.45-.12-1.18,.67-1.35Z"/>
      <path class="cls-11" d="M213.96,124.49c-.53-1.17-1.06-2.34-1.67-3.67-.58,1.46-1.08,2.79-1.63,4.09-.46,1.11-.97,2.19-1.7,3.16-2.17,2.85-3.71,3.1-6.57,.95-3.84-2.89-7.89-5.23-12.81-5.71-2.37-.23-4.67,.06-6.96,.55-1.41,.41-2.77,.35-4.15-.2-1.93-.76-4.03-.58-6.03-.97-.53-.35-.23-.66,.04-.97,2.16-2.4,3.19-5.4,4.23-8.35,1.19-3.34,2.36-6.7,2.78-10.25,.03-.23,.2-.41,.39-.55,2.77-.59,5.56-.27,8.33-.19,.96,.03,1.93,.15,2.89,.17,.72,.08,1.01,.65,1.32,1.19,.45,.77,.77,1.84,1.86,1.74,1.25-.12,1.08-1.41,1.43-2.25,.12-1.32,.83-2.15,2.04-2.69,1.66-.75,3.36-1.38,4.68-2.16-2.12-.19-4.58-.61-7.07-.13-.34,.08-.69,.12-1.04,.14-.67,.03-1.36-.08-2,.27-.74,.3-1.44,.73-2.29,.53-.39-.18-.51-.49-.42-.9,.26-.56,.77-.83,1.29-1.05,3.46-1.44,6.85-3.06,10.31-4.5,.75-.31,1.52-.47,2.33-.28,5.42,1.7,10.71,3.73,15.96,5.91,.94,.39,1.43,1.04,1.65,1.97h0c.75,3.48,.02,6.78-1.25,10.01-1.15,2.93-2.4,5.82-4.36,8.32-.94,1.19-.74,2.41-.56,3.73,.11,.81,.68,2.09-1.05,2.06Z"/>
      <path class="cls-96" d="M293.57,171.13c-1.82,1.41-3.94,2.29-5.95,3.35-4.36,2.3-8.51,4.92-12.3,8.08-.42,.35-.87,.47-1.39,.57-1.51,.29-3,.67-4.5,1.02-.31-.71,.27-1.05,.64-1.43,2.3-2.4,4.66-4.73,7.64-6.87-3.4,.47-6.2,1.73-8.91,3.16-7.45,3.92-14.78,8.06-21.48,13.2-.56,.43-1.49,.41-1.67,1.33-4.39,2.4-8.9,4.57-13.19,7.15-.52,.31-1.03,.75-1.72,.65-.37-.48-.81-.24-1.25-.15-5.37,1.14-10.68,2.53-15.86,4.35-2.05,.72-4.14,1.26-6.26,1.72-.14-.8,.57-.9,1.02-1.17,8.48-5.15,17.08-10.09,25.86-14.7,7.36-3.86,14.82-7.55,22.24-11.31,10.04-5.08,19.69-10.83,28.57-17.82,5.85-4.61,11.77-9.15,17.55-13.84,3.73-2.74,7.81-4.94,11.67-7.49,.46-.31,1-.6,1.6-.28,.78,2.44,.43,4.99,.63,7.48,.17,2.08,.41,4.24-.45,6.3-.27,.64,.28,1.19,.63,1.7,1.02,1.52,2.06,3.02,3.09,4.53-1.12-.39-1.53,.72-2.26,1.11-.63,.34-1.1,.95-1.89,1.01-5.45-.39-10.46,.99-15.32,3.42-3.33,1.66-6.66,3.29-9.66,5.17,.84-.04,1.81-1.06,2.93-.23Z"/>
      <path class="cls-17" d="M302.86,148.66c-3.06,2.48-6.06,5.03-9.18,7.44-5.97,4.61-11.87,9.32-18.15,13.54-5.05,3.39-10.36,6.32-15.7,9.19-7.16,3.85-14.45,7.45-21.71,11.1-5.83,2.92-11.47,6.2-17.19,9.33-4.42,2.41-8.56,5.3-13.07,7.55-.19,.09-.33,.3-.49,.45-1.76,.76-3.52,1.53-5.36,2.33-.19-.82-.36-1.57-.54-2.33,7.56-5.1,15.19-10.08,22.57-15.44,.96-.4,1.28-1.17,1.28-2.15,3.71-2.78,7.43-5.55,11.12-8.35,8.13-6.17,16.22-12.4,24.86-17.86,5.43-3.44,11.11-6.44,16.84-9.34,.29-.15,.64-.18,.96-.26,7.01-2.38,14.34-3.51,21.5-5.28,.75-.19,1.53-.62,2.26,.08Z"/>
      <path class="cls-96" d="M259.01,216.83c10.81-3.34,21.44-7.32,32.67-9.14,4.62-.75,9.28-1.49,13.98-.5,2.23,.47,4.15,1.64,6.07,2.77,3.86,2.28,7.5,4.87,11,7.67,3.35,2.68,5.42,6.13,6.75,10.15,2.14,6.47,4.23,12.96,6.13,19.51,.08,.26,.1,.53,.2,1.13-3.82-3.17-7.77-5.57-11.9-7.67-1.17-.59-2.47-.93-3.5-1.8-.36-1.25-1.16-2.24-1.99-3.18-5.36-6.07-11.34-11.41-18.66-15.02-5.45-2.68-11.15-4.48-17.35-4.47-7.01,.02-13.99,.22-20.96,1-.83,.09-1.73,.29-2.43-.45Z"/>
      <path class="cls-17" d="M259.01,216.83c4.22-.25,8.44-.43,12.65-.78,11.1-.93,21.78-.11,31.56,6.08,6.71,4.25,12.51,9.37,17.29,15.68,.28,.37,1.15,.87-.1,1.14-7.92-3.23-16-5.94-24.41-7.59-8.67-1.7-17.43-2.67-26.26-3.1-1.26-.77-2.67-.23-4-.46-3.92-.66-7.55-2.17-11.16-3.68-3.31-1.39-6.51-3.03-9.76-4.56-.35-.17-.67-.39-1.16-.69,1.05-.59,2.17,.12,3.01-.56,3.35-.14,6.65-.7,9.96-1.12,.65-.38,1.44,.12,2.09-.32,.1-.03,.19-.05,.29-.05Z"/>
      <path class="cls-11" d="M64.69,202.06c1.3,5.36,3.44,10.41,5.58,15.46,.92,2.18,.3,4.55,.18,6.8-.32,6-.62,12-.59,18.01,.6,5.42,.26,10.69-2.23,15.67-.36,.73-.63,1.5-1.61,1.58-3.54,2.21-7.17,4.27-10.85,6.23-.87,.46-1.17,.43-1.17-.65,0-2.52-.05-5.04-.14-7.56-.03-.88,.26-1.5,.86-2.12,2.99-3.05,3.84-6.65,2.63-10.73-.17-.58-.24-1.05,.1-1.61,2.23-3.59,1.9-7.17-.24-10.65-.49-.8-.5-1.34-.09-2.17,1.68-3.41,1.61-6.82-.3-10.13-.41-.71-.45-1.26-.14-2.05,1.33-3.41,2.51-6.87,3.31-10.46,.2-.88,.01-1.04-.77-1.24-1.43-.36-2.93-.52-4.24-1.25-1.19-.57-1.69-1.56-1.91-2.83-.23-1.41-.93-2.69-1.26-4.08-.16-.66-.43-1.31-.1-1.99,.57-.61,1.18-.38,1.68,.02,2.64,2.03,5.82,3.16,8.54,5.03,.89,.61,1.9,.24,2.75,.73Z"/>
      <path class="cls-17" d="M138.48,303.34c.27,1.24,.22,2.49,.29,3.75,.41,8.19,.29,16.4,.4,24.59,.03,1.96,.4,3.91,.05,5.89-.77-1.47-.84-3.11-1.12-4.68-1.02-5.78-1.97-11.57-2.91-17.36-.56-3.43-1.08-6.87-1.58-10.31-.08-.52-.1-1-.49-1.42-1.45-1.55-2.87-3.11-4.37-4.74-.75,.87-.67,1.83-.64,2.76,.28,7.08-1.03,13.89-3.42,20.52-.13,.37-.29,.72-.56,1.39-.27-1.33-.49-2.32-.53-3.37-.33-7.77-.67-15.54-1.07-23.3-.4-7.59-1.58-15.07-3.14-22.5-.18-.87-.64-1.68-.97-2.52-.01-.33-.03-.66-.04-.99-.33-1.03,.1-2.13-.25-3.16-.26-4.17-.8-8.3-1.74-12.38,.72-.33,1.34,.05,1.94,.34,2.81,1.36,5.72,2.5,8.41,4.1,2.88,5.78,4.31,12.02,5.75,18.25,1.94,8.39,3.54,16.87,6,25.14Z"/>
      <path class="cls-96" d="M258.37,91.76c.58-.67,0-1.05-.4-1.4-3.31-3-6.64-5.98-9.96-8.96-2.6-2.33-5.55-4.24-7.99-6.77-1.16-1.21-2.58-1.69-4.28-1.89-4.81-.55-9.59-1.45-14.41-1.92-4.38-.43-8.74-.96-13.11-1.45-4.48-.5-8.97-.95-13.45-1.39-.85-.08-1.72-.02-2.58-.02-.09,.01-.17,.03-.26,.04-.69,.09-1.39,.03-2.09,.08-1.42,.05-2.8-.23-4.18-.54-.84-.6-2.49-.52-1.97-2.29,.42-.76,1.19-.76,1.9-.92,2.07-.46,4.25-.34,6.24-1.22,3.02-.28,5.95-.92,8.98,.58,3.19,1.58,6.85,1.76,10.32,2.47,12.39,2.54,24.92,4.34,37.19,7.52,7.39,1.92,14.75,3.89,21.95,6.4,6.92,2.41,13.25,6.01,19.36,10.02,2.61,1.71,5.24,3.39,7.74,5.37-2.94-.24-5.87-.46-8.81-.71-5.08-.43-10.16-.84-15.23-1.31-4.85-.45-9.69-.96-14.53-1.46-.15-.02-.29-.16-.44-.25Z"/>
      <path class="cls-96" d="M255.22,243.46c-1.66-.66-2.41-2.24-3.38-3.53-1.3-1.73-2.65-3.2-4.8-3.93-2.54-.87-5-1.99-7.49-3.02-1.18-.49-1.62-.27-1.19,1.07,1.29,4.03,2.55,8.06,3.79,12.11,.82,2.66,1.57,5.34,2.47,8.38-2.49-1.47-4.72-2.69-6.84-4.06-5.29-3.41-10.57-6.81-15.65-10.52-3.28-2.4-6.54-4.82-9.79-7.25-.48-.36-.87-.79-1.48-.29-.8-3.68-1.67-7.36-2.38-11.06-.31-1.63,.91-.76,1.38-.56,4.08,1.68,8.14,3.42,12.19,5.17,4.73,2.05,9.45,4.14,14.18,6.19,.4,.17,.84,.25,1.46,.42-.57-2.45-1.56-4.56-2.35-6.74-.14-.38-.61-.85-.15-1.24,.34-.29,.76,.02,1.12,.18,2.67,1.18,5.35,2.37,8.02,3.56,.65,.29,1.13,.81,1.52,1.37,3.05,4.37,6.08,8.75,9.11,13.14,.12,.18,.17,.41,.26,.62Z"/>
      <path class="cls-71" d="M178.06,245.49c.25-1.02,.5-2.05,.75-3.07,.33-.31,.66-.16,.88,.1,1.17,1.37,2.33,2.75,3.63,4.01,.29,.28,.33,.71,.37,1.11-.23,4.47-.88,8.9-1.41,13.33-1,8.48-1.66,17-2.64,25.49-1.03,8.94-1.68,17.91-2.47,26.88-.07,.75-.17,1.49-.66,2.1-2.58,.42-5-.05-7.28-1.3-1.15-3.95-1.56-7.91-.88-12.04,1.49-9.06,2.9-18.12,4.35-27.19,1.43-8.95,2.69-17.93,4.5-26.81,.18-.91,.35-1.8,.85-2.6Z"/>
      <path class="cls-85" d="M261.14,143.8c.87,2.59,1.22,5.36,2.65,7.76,.53,.88,.99,1.83,1.62,2.63,.79,.99,.52,1.57-.47,2.16-9.53,5.67-18.45,12.22-27.28,18.89-6.73,5.08-13.39,10.24-20.1,15.34-.86,.66-1.82,1.19-2.74,1.78-.29,.18-.59,.47-.94,.27-.44-.25-.3-.7-.22-1.08,.31-1.56,.64-3.11,1.04-5.06-2.09,1.42-3.86,2.63-5.62,3.83,.54-2.48,.21-4.89,.28-7.28,.51,.11,.7-.3,.95-.59,4.33-5.08,9.32-9.47,14.33-13.85,.52-.45,1.07-.87,1.67-1.21,.45-.25,.97-.56,1.41-.06,.36,.4,.11,.89-.12,1.28-1.06,1.84-2.09,3.7-3.28,5.45-1.41,2.08-2.54,4.31-3.85,6.62,5.61-4,11.11-7.92,16.66-11.76,6.18-4.28,12.62-8.12,19.18-11.78,.7-.39,1.38-.83,2.03-1.3,.42-.3,.89-.62,.75-1.23-.13-.56-.64-.76-1.13-.96-1.07-.45-2.28-.27-3.34-.74-.42-.68,.13-1.12,.47-1.61-3.74,1.6-6.63,4.21-9.15,7.28-1.47,1.83-3.74,2.62-5.45,4.13-.26,.23-.65,.38-.95,.11-.4-.36-.09-.76,.11-1.08,1.28-2.07,3.08-3.67,4.79-5.37,3.71-3.7,8.13-6.5,12.18-9.77,1.39-1.12,2.92-2.01,4.52-2.8Z"/>
      <path class="cls-72" d="M189.81,168.68c-.21-1.11,.55-2.07,.4-3.18,.97,3.52,2.38,6.8,4.46,10.24,4.13-9.85,10.09-18.69,10.99-29.71,1.7,2.14,2.48,4.49,3.4,6.75,.73,1.8,1.27,3.67,1.94,5.49,.27,.75,.5,1.22,1.34,.27,4.63-5.27,8.37-11.02,9.94-17.96,.52-2.32,.37-4.67,.1-7.01-.1-.85-.21-1.68-.06-2.92,1.65,2.58,3.08,4.91,4.51,7.35,.23-5.64,.35-11.28-.07-16.99,2.24,2.85,4.46,5.65,5.76,9.03-.81-.39-.7,.2-.66,.65,.11,1.19,.17,2.4,.38,3.58,.99,5.48-1.05,10-4.44,14.05-.75,.9-1.82,1.54-2.65,2.23,.91-4.37,.77-8.93-1.42-13.34-.89,12.42-5.51,23.3-13.42,32.99,.28-5.39-.99-10.39-2.78-15.32-.02,3.94-.73,7.78-1.55,11.59-1.38,6.44-4.39,12.12-8.2,17.42-.62,.87-1.04,.94-1.69-.09-2.61-4.1-4.56-8.46-5.56-13.22-.14-.66-.17-1.37-.69-1.89Z"/>
      <path class="cls-89" d="M254.51,152.7c1.2,.02,2.41,.11,3.55,.48,.77,.25,1.53,.6,1.67,1.54,.14,.9-.64,1.16-1.2,1.49-3.92,2.35-7.82,4.74-11.81,6.98-4.25,2.39-8.16,5.27-12.15,8.03-4.97,3.43-9.88,6.94-14.92,10.34,2.28-4.89,5.43-9.27,8.03-13.98-.68-.47-1.08,0-1.42,.29-5.49,4.5-10.77,9.23-15.42,14.63-.77,.89-.86,.94-1.48,.52,2.04-4.81,5.55-8.53,9.1-12.19,8.28-8.54,17.76-15.56,27.99-21.59,4.21-2.48,8.52-4.75,13.19-6.24,.77-.25,1.53-.49,1.49,.79-.14,.23-.23,.57-.44,.69-4.14,2.35-7.83,5.37-11.51,8.33-3.53,2.84-7.13,5.72-9.45,9.84,1.81-1.62,4.15-2.47,5.87-4.2,2.41-2.31,5.45-3.74,8.09-5.73,.24-.18,.53-.18,.81-.03Z"/>
      <path class="cls-85" d="M241.42,66.98c-1.56-1.35-3.12-2.68-4.98-3.64-1.87-.96-3.26-2.47-4.55-4.11-.93-1.18-.53-2.41-.31-3.61,.59-3.27,.64-3.29,3.79-2.36,8.23,2.45,16.44,4.95,24.55,7.82,2.18,.77,3.6,1.75,3.81,4.32,.22,2.66,.94,5.29,1.42,7.93,.12,.65,.28,1.37-.85,1.03-8-2.38-16.18-4.09-24.24-6.25-.11-.03-.2-.11-.3-.17,.27-.88,.85-.48,1.36-.33h0c.22,.16,.44,.1,.53-.11,.09-.21-.05-.41-.25-.54Z"/>
      <path class="cls-17" d="M4.35,83.13c-.07-.39-.12-.77,.25-1.06,1.18-3.19,2.02-6.52,4.13-9.31,4.56-6.02,10.18-10.45,17.86-11.56,4.65-.67,9.27-.29,13.71,1.43,.53,.2,1.03,.52,1.62,.52,4.61,2.03,8.05,5.42,10.8,9.54,7.13,10.68,5.48,25.67-3.72,34.62-1.4,1.37-3,2.47-4.72,3.41-.45-.57,.05-.91,.24-1.24,1.15-1.92,2.54-3.84,2.98-5.98,.93-4.49,3.91-8.12,4.65-12.73,1.38-8.6-2.19-17.64-9.45-22.51-7.45-5.01-16.94-5.18-24.33-.26-5.14,3.43-8.4,8.21-9.57,14.34-.1,.5-.26,.99-.4,1.49-1.48,.53-2.74-.26-4.06-.69Z"/>
      <path class="cls-48" d="M66.02,259.58c1.72-2.13,2.16-4.81,3.09-7.27,1.24-3.26,.42-6.66,.75-9.98,.5,1.91,.1,3.89,.46,6.01,.56-1.54,1.05-2.9,1.55-4.25,1.1,1.82,1.38,3.96,2.35,5.85,1.86,3.63,3.98,7.07,6.75,10.08,.47,.51,.79,1.12,1.2,1.67-.42,6.28-1.08,12.53-1.94,19.12-2.26-1.68-4.3-3.17-6.31-4.69-3.65-2.77-7.28-5.57-10.94-8.33-.79-.59-1.09-.97-.35-1.98,1.32-1.79,2.35-3.79,3.51-5.7,.14-.23,.18-.4-.11-.52Z"/>
      <path class="cls-96" d="M171.13,220.99c1.23-.56,2.57-.39,3.86-.61,1.23-.21,1.08,.71,.88,1.46-.85,3.15-1.74,6.28-2.6,9.43-2.68,9.87-5,19.82-7.25,29.79-.3,1.35-.54,2.03-2.26,1.21-3.08-1.47-6.36-2.55-9.72-3.86,.2,.92,.95,1.21,1.39,1.72,2.49,2.92,5.02,5.81,7.56,8.69,.66,.75,.9,1.49,.61,2.5-.56,1.96-.5,4.08-1.45,6.04-2.89-3.77-5.72-7.48-8.56-11.18,.02-1.06-.63-1.88-1.01-2.79-.43-.88-.64-1.84-1.06-2.73-.5-1.28-.77-2.64-1.35-3.9-.57-1.25-.15-2,1.11-2.55,3.69-1.62,7.1-3.72,10.3-6.17,.85-.35,1.43-1.08,2.2-1.55,2.58-1.57,4.18-4.01,5.77-6.46,.42-.65,.33-1.3-.02-1.95-.6-1.13-1.37-2.1-2.41-2.86-.68-.5-1.16-1.11-.65-2.04,2.02-3.72,3.73-7.59,5.75-11.32,.11-.2,.25-.38,.48-.5-.3-.04-.57,.07-.85,.02-.29-.05-.55-.13-.73-.39Z"/>
      <path class="cls-13" d="M274.28,13.45c-4.22-1.94-8.75-2.87-13.19-4.1-6.73-1.86-13.37-.79-20.07,.16-11.16,1.59-20.5,7.22-29.78,13.04-8.37,5.25-16.04,11.4-23.3,18.09-.41,.38-.83,.76-1.24,1.13-.65,.15-1.3,.31-2.49,.58,1.74-2.09,3.08-3.85,4.57-5.48,9.97-10.88,22.11-18.68,35.4-24.84,5.98-2.77,12-5.42,18.31-7.39,1.69-.53,3.29-.07,4.93,.09,1.48,.15,2.94,.45,4.41,.69,7.03,1.65,14.1,3.15,20.99,5.38,8.22,2.65,16.28,5.7,23.91,9.8,.51,.28,1.25,.4,1.36,1.18,.09,.21,.14,.43,.1,.65-.12,.61,.4,1.51-.37,1.78-.77,.28-1.27-.49-1.72-1.06-.21-.27-.4-.58-.71-.74-4.21-2.06-8.4-4.18-12.97-5.35-2.65-1.34-5.61-1.98-8.12-3.61Z"/>
      <path class="cls-17" d="M145.62,264.52c-1.02,.62-.83,1.25-.3,2.23,3.27,6.09,6.64,12.13,9.47,18.45,.6,1.34,.62,2.61-.04,4.09-.96,2.15-2.55,3.94-3.43,6.21-.16-.67-.38-1.33-.48-2.01-.4-2.66-1.64-4.8-3.61-6.64-2.05-1.91-4.1-3.85-5.83-6.08-.39-.51-.79-1.18-1.63-1.1-3.34-5.54-5.78-11.48-7.89-17.57,.54-.58,1.18-.28,1.78-.2,3.25,.44,6.41,1.27,9.53,2.47,.41-.89-.58-1.79,.07-2.61,.99,.75,1.63,1.81,2.38,2.77Z"/>
      <path class="cls-67" d="M176.3,315.45c.78-4.7,.9-9.47,1.4-14.2,.67-6.37,1.25-12.76,1.88-19.14,.52-5.19,1.03-10.37,1.59-15.56,.59-5.47,1.23-10.93,1.84-16.39,.11-.97,.17-1.94,.25-2.91-.22-2.04,.17-4.03,.5-6.02,.09-.54,.07-1.17,.8-1.34,.27,.88-.47,2.47,.61,2.54,1.24,.07,.91-1.66,1.03-2.52,.22-1.6,.1-3.21,1.83-4.09,.57,1.67,.06,3.25-.51,4.78-.18,.48-.25,.97-.45,1.43-1,8.89-1.99,17.77-2.99,26.66-.98,8.71-1.96,17.43-2.92,26.14-.75,6.78-1.46,13.57-2.22,20.35-.07,.59-.17,1.12,.15,1.65,.94,3.4,2.86,6.34,4.48,9.42,.87,1.66,2.04,3.16,3.08,4.73q-1.99,1.59-.79,3.91c.33,.64,.2,1.31,.17,2-.04,.76-.35,1.53-.93,1.7-.67,.2-1.23-.44-1.49-1.14,.31-.28-.06-.79,.36-1.04,.18-.01,.31,.12,.46,.16,.35,.08,.07-.15,.05-.18-.45-.57-.89-1.15-1.57-1.48-.89-.81-1.17-1.96-1.58-3.01-1.7-4.25-3.72-8.38-5.17-12.73-.41-1.23-.91-2.54,.16-3.73Z"/>
      <path class="cls-96" d="M274.28,13.45c2.87,.74,5.53,2,8.21,3.23,.92,.54,.88,1.64,1.39,2.42,.51,1.15,1.2,2.22,1.57,3.43,.65,2.99,1.46,5.94,2.22,8.9,.07,.27,.17,.54-.05,.79-.65-.05-1.05,.31-1.43,.78-3.12,3.86-6.99,6.55-12.18,7.64,2.75-4.97,2.84-10.09,1.1-15.51-.73,4.85-2.03,9.31-4.58,13.34-.31,.48-.53,1.02-1.1,1.26,1.41-3.34,3.01-6.61,3.77-10.2,.98-4.63,.61-9.31,.71-13.98,.02-.71-.29-1.5,.38-2.1Z"/>
      <path class="cls-96" d="M304.55,200.97c.54-.47,1.2-.27,1.81-.28,1.88-.02,3.76,0,5.63-.33,1.21-.21,1.66-.46,.81-1.69-1.58-2.3-3.92-3.63-6.19-5.03-2.64-1.63-5.57-2.62-8.59-3.31-1.07-.3-1.39-1.09-1.24-2.08,.11-.78,.16-1.57,.21-2.36,6.57,1.12,12.49,3.89,18.33,6.98,7.39,3.91,11.85,10.42,16.12,17.17,.08,.13,.07,.32,.13,.58-5.19,.08-9.8-.97-13.39-5.1-1.98-2.28-4.59-3.86-7.63-4.33-1.96-.3-3.99-.17-6-.23Z"/>
      <path class="cls-12" d="M31.22,214.86c.94-.24,1.84,.1,2.71,.33,5.64,1.52,11.3,2.96,16.76,5.08,3.2,1.24,4.25,3.39,3.35,6.69-.58,2.13-1.97,3.02-4.12,2.54-3.96-.88-7.92-1.77-11.86-2.72-3.15-.75-6.34-.78-9.55-.68,.89-1.02,.93-2.17,.67-3.44-.32-1.51-.17-3.05-.15-4.58,.02-2.21,.21-2.47,2.2-3.23Z"/>
      <path class="cls-73" d="M200.44,44.86c-.58,2.99-1.16,5.99-1.73,8.98-.54,1.21-1.71,1.55-2.76,2.14-2.29,1.29-4.66,2.36-7.21,3.03h0c-.88,.44-1.87-.07-2.76,.3-3.2,.26-6.39,.74-9.61,.75-.42-.36-.34-.82-.22-1.26,.84-3.18,2.09-6.04,5.65-7.06,.26-.08,.09-.25,.01-.38,.44-.18,.88-.36,1.46-.59-1.29-.86-2.65-1.06-3.94-1.35-1.46-.33-1.61-1.02-.98-2.17,.68,.28,1.34,.09,2.02,0,6.12-.88,12.18-2.22,18.38-2.51,.57-.03,1.15-.15,1.69,.12Z"/>
      <path class="cls-20" d="M234.2,105.12c.4-4.05,3.36-7.37,7.26-8.12,4.51-.87,8.27,2.74,8.18,7.83-.04,2.64-.75,5.07-2.2,7.28-2.6,3.96-5.87,7.33-9.36,10.5-.59,.53-.77,.59-1.16-.23-1.23-2.56-1.27-2.53,.67-4.59,.51-.54,.98-1.12,1.48-1.67,1.64-1.78,2.25-3.49,.55-5.75-1.4-1.87-.42-4.9,1.81-6.64,.84-.66,1.81-1.15,2.71-1.72-2.02-1.21-4.07-.76-5.8,1.26-1.58,1.85-1.97,4.09-2.1,6.41-.27,.66-.77,1.19-1.13,1.8-.26,.45-.6,.43-.82-.08-.02-.23-.04-.46-.05-.69-.11-1.86-.38-3.73-.06-5.6Z"/>
      <path class="cls-25" d="M160.1,309.23c3.52-13,5.83-26.27,8.56-39.45,1.66-8.01,3.27-16.02,4.91-24.04,.07-.32,.24-.63,.36-.94,.27-.22,.47-.12,.74,.05,.92,.57,.58,1.62,.97,2.39,.09,2.61-.64,5.11-1.07,7.65-2.13,12.5-4.05,25.03-6.06,37.55-.73,4.53-1.37,9.08-2.11,13.61-.17,1.01-.34,2.04-.94,2.93-1.32,1.08-2.94,1.1-4.51,1.25-.6,.06-1.18-.14-.86-1Z"/>
      <path class="cls-96" d="M296.31,22.72c.57,.32,.57,1.28,1.58,1.24,.06-.71,.12-1.44,.18-2.18,.67,4.28,1.31,8.57,2.02,12.85,.59,3.54,.74,7.15,1.7,10.63,.91,1.7,.98,3.55,.94,5.42,0,.39-.16,.78,.09,1.14-.06,.82,.08,1.61,.38,2.38-.32,.52-.68,.23-1.02,.03-4.7-2.65-8.22-6.51-11.3-10.84-.38-.53-.2-.86,.12-1.34,1.43-2.16,2.56-4.47,3.29-6.96,.11-.37,.37-.73-.04-1.3-2.31,1.46-4.56,3.14-7.46,3.66,.07-.64,.46-1.08,.89-1.5,1.91-1.31,3.36-3.08,4.43-5.08,1.18-2.2,2.45-4.38,3.21-6.79,.17-.54,.44-1.05,.99-1.35Z"/>
      <path class="cls-2" d="M32.49,230.28c2.06-.6,4.05,.01,6.04,.38,4.55,.85,9,2.07,13.42,3.41,2.65,.81,3.32,1.96,2.98,4.59-.32,2.5-1.99,3.86-4.5,3.56-4.43-.52-8.8-1.38-13.26-1.72-1.66-.12-3.28,.26-4.92,.12,.05-.71,.51-.33,.6-.38-1.26-.32-1.16-.34-1.47-2.01-.31-1.6-.31-3.2-.28-4.8,.03-2.11,.6-2.65,2.82-2.8-.48-.15-1.05,.09-1.44-.36Z"/>
      <path class="cls-13" d="M191.83,63.13c-1.06,1.39-2.74,.94-4.12,1.35-1.23,.37-2.54,.48-3.81,.7-1.83,.82-3.75,.97-5.38,.93,2.14,.29,4.73,.12,7.12,1.1,1.48,.15,2.96,.3,4.43,.45,.66,.37,1.45-.1,2.11,.31,0,0,0,0,0,0-.06,.65-.55,.65-1.01,.66-4.87,.08-9.71,.64-14.56,1.09-5.63,.53-11.25,1.26-16.84,2.08-5.94,.87-11.87,1.79-17.74,3.05-1.78,.38-3.57,.68-5.36,1.01-1.25,.06-2.51,.12-3.76,.19-.03-.14-.06-.27-.1-.41,17.08-5.31,33.96-11.44,52.13-12.22,1.03-.29,2.1,.1,3.13-.23,1.25-.02,2.5-.05,3.75-.07Z"/>
      <path class="cls-40" d="M221.16,100.37c-.9-1.81-2.85-1.97-4.4-2.6-4.35-1.76-8.8-3.3-13.21-4.92-1.77-1.57-3.94-2.42-6.03-3.41-.85-.41-1.66,.03-2.47,.28-1.07,.33-2.05,1.03-3.26,.85-5.44-.65-10.85,.04-16.26,.43-.41,.13-.74,.53-1.24,.42,.39-1.79,.84-3.56,1.14-5.36,.19-1.14,.79-1.35,1.79-1.21,4.6,.62,9.21,1.2,13.81,1.82,6.47,.88,12.93,1.85,19.36,3.02,.51,.09,1.01,.18,1.52,.28,1.66,.34,3.83-.02,4.86,1.23,2.17,2.63,4.02,5.6,4.38,9.17Z"/>
      <path class="cls-17" d="M171.13,220.99c.57,.03,1.14,.05,1.88,.09-1.35,2.76-2.66,5.44-3.98,8.11-.35,.72-.74,1.42-1.12,2.13-.45,.86-1.23,1.7-1.27,2.58-.05,1.02,1.31,1.28,1.96,1.98,2.1,2.29,2.19,3.21,.41,5.77-1.41,2.02-2.83,4.03-5.07,5.24-.28-.22-.48-.53-.79-.73-1.43,.42-2.91,.18-4.35,.39-2.45,.19-4.89,.38-7.34,.56-.31,.02-.76,.21-.9-.21-.12-.35,.18-.61,.51-.78,1.3-.34,1.95-1.52,2.87-2.32,3.37-2.92,7.07-5.45,10.23-8.62,1.09-1.1,.86-3.57-.4-4.44-.54-.37-.68,.14-.93,.41-.58,.65-.85,1.68-2.01,1.6,1.26-3.83,3.66-7.07,5.51-10.59,.5-.95,1.87-.5,2.82-.76,.62-.16,1.3-.29,1.96-.41Z"/>
      <path class="cls-63" d="M165.3,308.92c1.58-9.66,3.16-19.33,4.73-28.99,1.66-10.2,3.3-20.41,4.95-30.61,.13-.79,.24-1.58,.36-2.37,.03-.22,.12-.24,.27-.08,1.07,0,1.64-.9,2.45-1.37-.25,3.55-1.29,6.97-1.83,10.47-.97,6.27-1.99,12.53-3,18.8-.97,6.03-1.98,12.06-2.94,18.1-.68,4.29-1.45,8.58-1.88,12.9-.28,2.79,.82,5.53,1.05,8.32,.61,1.57,1.29,3.14,.34,4.83-.71,.16-1.41,.43-2.37-.28,.2,1.19,.79,1.97,.24,2.76-.65-.09-.78-.63-.89-1.11-.75-3.49-1.37-7.01-1.74-10.57-.03-.29,.06-.56,.25-.79Z"/>
      <path class="cls-96" d="M271.15,152.68c-.97-.5-1.44-1.54-2.19-2.28-.48-.48,.26-.77,.54-1.03,5.86-5.55,11.75-11.08,17.62-16.61,.45-.42,.85-.87,1.25,.08,1.15,2.74,2.31,5.48,3.51,8.2,.42,.95,.18,1.47-.75,1.88-6.57,2.85-12.94,6.12-19.32,9.38-.2,.1-.4,.22-.67,.38Z"/>
      <path class="cls-4" d="M32.87,245.1c3.36-1.31,6.77-.48,10.15-.11,3.12,.34,6.21,1.01,9.32,1.41,1.19,.15,1.55,.72,1.61,1.77,.21,3.34-2.37,5.77-5.93,5.52-2.85-.2-5.69-.54-8.55,0-1.1,.21-2.02,.77-3.02,1.15-1.11,.62-2.24,.98-3.5,.46-.57-.6-.49-1.36-.5-2.09-.04-2.71-.09-5.43,.42-8.12Z"/>
      <path class="cls-35" d="M282.1,130.7c.45,.12,1.03-.25,1.26,.3,.18,.44-.3,.7-.58,.96-4.85,4.54-9.69,9.1-14.78,13.38-.81,.68-1.16,.47-1.36-.5-.28-1.34-.66-2.66-.94-4-.22-1.09-.86-1.49-1.94-1.53-2.26-.08-4.48,.17-6.61,.85-1.42,.45-1.62-.31-2.01-1.31-.48-1.22,.31-1.35,1.09-1.63,6.48-2.27,12.96-4.58,19.77-5.67,2.03-.33,4.07-.58,6.08-.87Z"/>
      <path class="cls-46" d="M230.43,154.76c1.81-3.58,4.03-6.66,6.36-9.59,3.36-4.23,4.35-8.84,3.39-14.03-.04-.22-.04-.46-.04-.69,0-.11,.04-.22,.09-.53,1.96,1.18,3.45,2.85,5.2,4.16,.73,.55,1.33,1.32,2.12,1.74,2.35,1.25,3.01,3.36,3.32,5.78,.09,.7-.03,1.09-.62,1.37-6.77,3.3-12.87,7.71-19.21,11.71-.08,.05-.22,.03-.62,.08Z"/>
      <path class="cls-96" d="M295.95,176.21c3.39-1.14,6.74-2.42,10.18-3.39,4.33-1.22,8.74-2.12,13.16-2.97,1.66-.32,3.31-.12,4.96-.22,.61-.04,1.28,.2,1.77-.38,.99,.8,1.07,1.75,.61,2.9-1.18,2.95-2.34,5.91-3.95,8.97-2.93-4.61-7.28-5.48-12.04-5.6-4.92-.12-9.81,.19-14.7,.67Z"/>
      <path class="cls-13" d="M302.86,148.66c-4.46,.96-8.93,1.87-13.38,2.9-3.11,.71-6.2,1.56-9.29,2.38-.4,.1-.75,.31-1.09-.08,8.09-4.14,16.32-8,24.62-11.72,2.56-1.15,5.15-2.22,7.66-3.46,1.18-.58,2.07-.72,2.95,.39,.46,.57,1.03,1.06,1.55,1.58-3.17,1.44-5.9,3.61-8.88,5.36-1.41,.83-2.76,1.77-4.13,2.66Z"/>
      <path class="cls-13" d="M181.83,145.49c1.29-.18,1.67,.37,1.82,1.67,.59,5.1,1.35,10.17,2.05,15.26-.12,.32-.14,.76-.68,.63-1.52-4.32-2.94-8.67-2.96-13.35-1.54,6.01-2.78,12.04-.83,18.7-1.01-1.05-1.09-2.01-1.47-2.81-.38-.8-.31-1.77-.95-2.58-.77,6.08,1.47,11.07,5.1,15.61,.08,.59-.17,.83-.76,.73-5.28-5.37-6.77-9.98-6.61-20.37-.5-.08-.44,.56-1.03,.86,.57-5.01,1.85-9.5,4.17-13.7,.52-.93,1.4-.54,2.15-.66Z"/>
      <path class="cls-5" d="M82.17,261.69c-1.3-.5-1.94-1.74-2.72-2.71-3.23-4.02-5.77-8.46-7.42-13.36-.16-.47-.11-1.01-.15-1.52,.17-1.08,.43-2.13,.98-3.09,.71-.58,1.48-.69,2.19-.1,1.78,1.47,3.96,2.24,5.87,3.48,.75,.49,1.32,1.03,1.69,1.82,.22,4.32-.02,8.63-.29,12.94-.05,.85-.09,1.7-.14,2.55Z"/>
      <path class="cls-17" d="M34.23,118.05c-2.14-2.26-3.18-5.1-4.28-7.97-.56,2.77-.5,5.55-.23,8.56-3.65-3.35-5.34-7.66-7.44-11.72,.6-.51,1.22-.23,1.77,.05,5.58,2.78,10.68,.63,15.78-1.51,.56-.23,1-.81,1.71-.57-.83,2.05-1.95,3.98-2.55,6.14-.69,2.46-.48,4.85,.17,7.26-.82,1.01-2.91,1.23-4.18,.43-.29-.18-.49-.47-.76-.67Z"/>
      <path class="cls-17" d="M296.31,22.72c-1.86,4.67-3.66,9.38-7.49,12.91-.55,.51-.55,.52-1.14,.3,.29-.56,.57-1.12,.86-1.69,.54-1.07-.15-1.57-.93-2.03-.92-1.17-.85-2.67-1.24-4.01-.56-1.91-.92-3.87-1.36-5.81,.47-1.57-.52-2.46-1.56-3.33-.32-.8-.64-1.6-.96-2.4,2.63,.32,4.91,1.66,7.33,2.58,1.96,.75,3.82,1.75,5.71,2.65,.35,.17,.74,.34,.78,.82Z"/>
      <path class="cls-3" d="M32.94,196.87c.94-.49,1.16,.1,1.09,.83-.17,1.63,.81,2.49,1.98,3.32,1.82,1.28,3.64,2.59,5.39,3.97,1.93,1.52,2.4,3.75,1.29,5.64-1.01,1.74-2.73,2.27-5.09,1.37-2.63-1-4.91-2.64-7.1-4.38-.45-2.93-.1-5.87,.06-8.79,.07-1.28,1.55-1.34,2.38-1.96Z"/>
      <path class="cls-17" d="M8.44,89.35c.72,5.28,3.13,9.7,6.47,13.82,2.2,2.72,3.73,5.97,5.43,9.07-10.2-4.89-15.42-13.11-16.3-24.26,.94,.13,1.78-.12,2.61-.58,.47-.26,.96-.9,1.62-.29,.1,.74-.17,1.52,.16,2.24Z"/>
      <path class="cls-39" d="M178.36,129.04c1.5-.74,2.91-1.67,4.56-2.07,3.36,.23,6.7,.62,9.99,1.42,1.4,.34,2.63,1.12,4.05,1.35,1.92,.99,3.81,2.03,5.75,2.97,2.93,1.42,5.46,.97,7.77-1.3,.28-.18,.55-.5,.91-.34,.4,.18,.27,.58,.2,.9-.75,3.33-2.89,4.76-6.34,4.22-3.01-.47-5.93-1.28-8.82-2.23-3.87-1.28-7.8-2.33-11.9-2.53-1.86-.09-3.67,.04-5.27,1.13-1.15,.28-1.75-.28-2.05-1.32-.03-.94,.53-1.59,1.14-2.21Z"/>
      <path class="cls-13" d="M113.21,259.25c-2.66-.25-5.05-1.43-7.55-2.22-4.58-1.46-9.06-3.22-13.39-5.32-.05-.57-.09-1.14-.16-1.7-.41-3.57-.35-3.7,2.83-2.24,5.14,2.36,10.37,4.5,15.6,6.64,1.68,.69,2.6,1.65,2.55,3.48-.01,.45,.08,.91,.12,1.36Z"/>
      <path class="cls-82" d="M169.81,318.91c-.11-1.61-.23-3.22-.34-4.83,2.28,.46,4.56,.91,6.83,1.37-.38,1.69,0,3.28,.66,4.82,2.07,4.84,3.83,9.81,6.21,14.51,.54,.44,.76,1.02,.7,1.71-.04,.33,.21,.75-.27,.96-2.66-3.5-5.37-6.96-7.96-10.5-1.96-2.67-4.14-5.18-5.83-8.05Z"/>
      <path class="cls-13" d="M158.79,215.14c1.04-3.38,2.54-6.57,3.87-9.84,.51-1.27,1.19-2.48,1.34-3.87,.06-.54,.33-.82,.82-.94,.05-.01,.11-.04,.16-.07q4.18-2,6.51,2.01c.98,1.45,.71,3.08,.63,4.66-.04,.74-.54,1.13-1.34,.75-1.24-1.02-2.18-2.34-3.39-3.4-1.11-.97-1.32-.94-1.85,.49-.3,.81-.52,1.64-.69,2.48-.13,.66-.13,1.27,.6,1.61,.3,.17,.61,.31,.92,.46,.99,.56,2.15,.8,3,1.59,.51,.46,1.04,.99,.89,1.74-.16,.8-.93,.93-1.59,1.08-2.23,.49-4.52,.48-6.76,.86-1.03,.17-2,.9-3.12,.39Z"/>
      <path class="cls-96" d="M175.28,182.38c1.14-1.15,1.73-1,2.16,.66,1.55,6.03,3.84,11.76,7.32,16.97,.61,.91,.65,1.57-.38,2.28-1.03,.71-1.94,1.62-2.64,2.69-.4,.62-.82,.92-1.49,.29-2.95-2.78-5.93-5.54-8.06-9.06,.82-.49,1.25,.23,1.78,.59,1.95,1.3,3.56,3.03,5.76,4.56-1.93-5.64-3.68-11-4.41-16.62-.15-.79-.21-1.57-.04-2.36Z"/>
      <path class="cls-72" d="M179.09,132.43c1.22-1.89,3.3-1.59,4.97-1.53,4.34,.14,8.55,1.2,12.65,2.64,2.91,1.03,5.91,1.72,8.93,2.28,2.75,.51,5.11-1.13,5.73-4.06,.22-1.05-.63-.12-.89-.35,.25-.52,.63-.91,1.29-1.3,.19,2.51-.24,4.7-1.68,6.58-1.12,1.46-2.72,1.73-4.49,1.52-4.46-.52-8.73-1.78-12.94-3.29-2.27-.81-4.58-1.49-6.98-1.73-2.18-.22-4.02,.67-5.7,1.96-1.04,.8-2.04,1.65-3.31,2.09,1.02-1.5,1.24-3.4,2.41-4.83Z"/>
      <path class="cls-21" d="M174.92,90.67c1.46-.7,3.03-.19,4.55-.43,4.22-.66,8.48-.77,12.71,.08-.17,.76-.89,.8-1.42,1.08-3.14,1.71-6.4,3.22-9.35,5.29-.85,.6-1.37,1.22-.66,2.24,.39,.94-.27,1.27-.95,1.39-1.04,.19-2.1,.43-3.17,.08-.75-.61-1.49-1.23-1.95-2.1,.22-1.86,.57-3.69,.91-5.53,.17-.89-.04-1.54-.68-2.11Z"/>
      <path class="cls-96" d="M170.85,207.52c.85,.45,.98-.04,.94-.73-.1-1.45-.2-2.9-.31-4.35,.62-.01,.85,.54,1.18,.89,1.93,2.1,3.83,4.25,5.74,6.37,.46,.51,.8,1,.73,1.81-.21,2.65-.15,2.77-2.98,3.02-5.45,.5-10.92,.87-16.38,1.23-.23,.02-1.4,.73-.98-.61,3.07-1.23,6.37-1.13,9.57-1.66,.62-.1,1.47-.12,1.58-.73,.11-.63-.5-1.22-1.12-1.56-.94-.51-1.91-.99-2.86-1.49,1.07-.79,2.04,.03,3.05,.18,1.52,.6,3.1,.97,4.8,1.25-.92-.71-1.92-1.16-2.63-1.99-.3-.5-.84-.96-.32-1.62Z"/>
      <path class="cls-7" d="M205.66,57.62c1.13,1,2.59,1.08,3.96,1.39,3.15,.72,6.3,1.39,9.46,2.08,.57,.26,1.18,.52,.18,1.03-.58,.3-1.21,.31-1.84,.23-4.08-.53-8.09-1.41-12.08-2.39-2.72-.67-3.18-1.55-2.86-4.47,.71-3.76,1.37-7.53,2.16-11.27,.48-2.27,1.85-3.13,4.17-2.68,4.79,.94,9.63,1.66,14.27,3.27,.26,.09,.56,.04,.85,.06-.06,1.46-.99,1.4-2.05,1.21-3.94-.7-7.84-1.6-11.79-2.2-1.94-.29-2.73,.11-3.08,2.01-.58,3.13-1.7,6.18-1.68,9.42,0,.79-.12,1.59,.34,2.31Z"/>
      <path class="cls-13" d="M185.95,221.73c-1.65-.78-2.62-2.17-3.31-3.78-1.85-4.34-.59-10.23,2.85-13.48,1.38-1.3,3.01-2.06,4.92-2.15,1.77-.08,3.38,.3,4.53,1.81,.24,1.32-.3,2.1-1.62,2.35-.47-.01-.89-.21-1.28-.45-1.61-.98-3.07-.57-4.45,.46-2.55,1.91-3.8,6.53-2.59,9.5,1.44,3.54,4.1,4.14,7.02,1.64,.71-.61,1.03-1.69,2.13-1.86,.66,1.46-.46,4.3-2.13,5.2-1.91,1.03-3.91,1.6-6.07,.74Z"/>
      <path class="cls-76" d="M82.67,290.01c2.14-12.8,3.38-25.66,4.26-38.58,.14,1.44,.35,2.87,.41,4.31,.3,7.85,.51,15.71,.45,23.57-.01,1.39-.56,2.55-1.13,3.73-1.16,2.41-2.3,4.83-3.99,6.98Z"/>
      <path class="cls-28" d="M35.72,172.38c-.81-4.03-.67-7.85,1.7-11.5,1.89-2.92,3.42-6.09,5.02-9.19,.67-1.29,1.31-1.38,2.29-.39,.92,.93,2.22,1.42,3.04,2.49-.02,1.11-.89,1.69-1.56,2.33-3.34,3.15-5.71,7.02-8.13,10.85-.86,1.36-1.53,2.83-1.65,4.48-.03,.4,.01,.99-.7,.94Z"/>
      <path class="cls-96" d="M246.29,52.49c1.41-.68,2.92-.26,4.38-.35,.9-.05,1.28-.28,.93-1.24-.52-1.43-.98-2.89-1.47-4.33,3.24,1.7,6.48,3.41,9.72,5.1,1.15,.6,2.43,4.03,1.95,5.2-.24,.59-.63,.36-.99,.24-4.84-1.54-9.68-3.09-14.53-4.63Z"/>
      <path class="cls-32" d="M205.66,57.62c-.74-.48-.71-1.24-.73-1.98-.1-3.82,1.08-7.4,2.02-11.03,.32-1.25,1.28-1.58,2.4-1.38,4.2,.75,8.41,1.5,12.58,2.39,.99,.21,1.56,.1,2-.76,2.3,.45,3.3,1.74,3.02,3.93-.08,.63-.1,1.29-.35,1.85-.28,.64,.29,2-1.23,1.73-1.15-.2-2.26-.41-1.83-2.12,.32-1.3,0-2.39-1.57-2.72-4.08-.88-8.14-1.86-12.29-2.36-1.08-.13-1.81,.26-2.06,1.33-.85,3.67-1.85,7.31-1.95,11.11Z"/>
      <path class="cls-13" d="M161.86,248.25c-2.99,2.73-6.58,4.5-10.19,6.19-1.29,.6-1.53,1.19-.99,2.45,.52,1.19,.81,2.49,1.2,3.74,.19,.31,.25,.68,.04,.93-.3,.36-.62,.05-.82-.18-.44-.5-1.03-.61-1.63-.72-.67-.2-1.11-.79-1.77-1-.74-.71-1.49-1.41-2.21-2.14-1.7-1.74-1.71-1.79,.48-3.04,4.08-2.31,8.36-4.23,12.62-6.17,.66-.3,1.28-.71,1.91-1.07,.18-.22,.42-.32,.7-.34,.78,.17,1.52,.37,.66,1.35Z"/>
      <path class="cls-17" d="M175.68,184.8c.43,3.39,1.58,6.6,2.35,9.91,.48,2.06,1.23,4.03,2.06,5.96,.17,.4,.6,.86,.12,1.23-.47,.35-.82-.13-1.17-.41-1.94-1.59-3.88-3.17-5.81-4.77-.31-.26-.59-.55-1.04-.51-.35-.44-.7-.87-1.05-1.31,.4-2.3,1.05-4.55,1.44-6.85,.11-.63,.38-1.33,1.06-1.42,1.17-.14,1.49-1.08,2.04-1.83Z"/>
      <path class="cls-79" d="M165.3,308.92c.68,3.85,1.35,7.69,2.04,11.53,.06,.32,.23,.62,.34,.94,.28,2.26,1.22,4.36,1.81,7-2.04-2.2-3.34-4.4-4.58-6.6-1.94-3.44-3.46-7.08-4.81-10.79-.21-.58-.55-1.17,0-1.76,.11,.71,.51,.7,1.1,.55,1.36-.33,2.73-.58,4.1-.86Z"/>
      <path class="cls-17" d="M294.22,184.81c.29-.46,.82-.3,1.23-.44,1.25-.44,1.81-.99,1.18-2.51-.39-.93-1.17-1.98-.55-3.23,.2-.39-.67-.27-.82-.67,3.7,.03,7.36,.6,11.02,1.02,.8,.46,2.16,3.46,1.98,4.33-.12,.6-.53,.62-1.02,.63-1.12,.01-2.25-.11-3.37,.14-3.22,.24-6.44,.48-9.65,.72Z"/>
      <path class="cls-96" d="M246.96,40.41c-.78-1.38-1.56-2.75-2.4-4.23,.99-.39,1.64,.19,2.36,.39,4.77,1.36,9.55,2.72,14.57,2.84,.94,.02,1.66-.18,2.07-1.07-.29,3.18-1.91,4.74-5.01,4.48-3.61-.3-7.07-1.33-10.46-2.61-.38-.14-.92-.79-1.13,.2Z"/>
      <path class="cls-80" d="M184.57,239.9c-.58,1.98-.63,4.05-.97,6.06-.07,.44,.04,.93-.33,1.29-1.48-1.62-2.78-3.4-4.46-4.84,.65-3.34,1.29-6.69,1.95-10.03,.06-.31-.04-.77,.34-.89,.48-.16,.75,.29,.92,.61,.95,1.81,3.09,2.99,2.91,5.41-.4,.66,.11,1.47-.33,2.13-.04,.08-.05,.17-.03,.26Z"/>
      <path class="cls-13" d="M160.84,232.75c1.09-.49,1.42-1.6,2.03-2.47,.47-.68,.82-.72,1.21,.05,.52,1.02,1.06,2.03,1.63,3.03,.52,.92-.32,1.23-.75,1.67-3.28,3.3-7.16,5.91-10.61,9.02-.72,.65-1.44,1.32-2.17,1.96-.33,.29-.68,.74-1.11,.11,3.25-4.46,6.73-8.76,9.76-13.37Z"/>
      <path class="cls-16" d="M64.69,202.06c-2.34,1.1-3.63-1.08-5.38-1.77-2.63-1.04-4.77-3.02-7.41-4.09-1.62-.27-2.37-1.55-3.14-2.77-.17-.27,.16-.5,.35-.71,1.12-.98,2.29-.88,3.48-.14,3.47,2.13,6.91,4.3,10.7,5.86,1.58,.65,1.2,2.3,1.41,3.61Z"/>
      <path class="cls-22" d="M41.93,63.14c-1.65,.35-2.98-.71-4.49-1.02-8.66-1.77-16.49-.52-23.36,5.52-4.31,3.79-7.36,8.23-8.89,13.74-.06,.23,.14,.92-.58,.68,.99-9.04,8.56-17.85,17.73-20.6,6.75-2.03,13.31-1.75,19.59,1.67Z"/>
      <path class="cls-37" d="M202.48,55.5c.25,3.15,.7,3.58,4,4.25,3.63,.74,7.23,1.62,10.91,2.13,.66,.09,1.29,.04,1.84-.15,.64-.21-.18-.4-.16-.64,.76,.04,1.5,0,1.81-.87,.44-1.24,1.35-1.78,2.6-1.85,.39-.26,.71-.34,.76,.29,1.01,3.62-1,5.88-4.63,5.2-4.65-.88-9.31-1.77-13.94-2.72-3.82-.79-4.36-1.79-3.19-5.65Z"/>
      <path class="cls-28" d="M34.97,129.91c2.28-2.1,4.75-3.97,7.25-5.79,1.29-.94,1.33,.79,2.05,1.1,.48,.65,.18,1.19-.25,1.68-2.42,2.75-4.85,5.49-6.46,8.84-.18,.37-.47,.66-.94,.63-1.32-.96-2-2.43-2.83-3.73-.72-1.13,.51-1.93,1.19-2.74Z"/>
      <path class="cls-97" d="M218.08,50.37c1.15-.11,1.61,.33,1.29,1.51-.29,1.1-.62,2.21-.74,3.34-.15,1.41-.75,1.73-2.08,1.39-2.04-.52-4.12-.91-6.19-1.32-.48-.1-.99-.15-.81-.8,.45-1.68,.53-3.46,1.28-5.07,1.42,1.24,3.17,1.13,4.87,1.11,.79-.01,1.59-.13,2.39-.16Z"/>
      <path class="cls-13" d="M143.24,261.74c.28,1.08,.55,2.15,.9,3.52-4.06-1.77-8.13-2.65-12.29-3.18-.74-1.1-.96-2.39-1.47-3.76,3.28,0,6.28,.85,9.3,1.52,1.38,.31,2.86,.34,3.55,1.9Z"/>
      <path class="cls-52" d="M213.96,124.49c.37-.28,1.14-.33,.79-1.06-1.38-2.87,.42-4.93,1.75-7.12,2.98-4.89,4.94-10.1,4.67-15.94,1.16,4.94,1.34,9.8-1.01,14.52-1.28,2.56-2.65,5.06-4.11,7.53-.44,.75-.82,1.51-.71,2.42-.22,.45-.45,.9-.67,1.35-.23-.56-.47-1.12-.7-1.67Z"/>
      <path class="cls-84" d="M202.61,186.53c-.1,1.82-.87,3.28-1.6,4.72-.88,1.73-1.36,3.29,.24,4.92,.71,.72,1.08,1.75,1.7,2.57,.79,1.05,.46,1.68-.52,2.36-.72,.5-1.13,.8-1.72-.19-1.02-1.72-2.26-3.3-3.29-5.01-1.32-2.18-.91-4.29,1.04-5.94,1.37-1.16,2.77-2.28,4.15-3.42Z"/>
      <path class="cls-13" d="M126.74,259.95c-.75,.29-1.29-.25-1.85-.53-2.79-1.41-5.61-2.73-8.5-3.91-.62-2.45-2.07-4.16-4.55-5.01,1.35-.41,2.5,.05,3.62,.52,2.17,.92,4.24,2.1,6.47,2.8,2.69,.84,3.59,2.93,4.42,5.21,.11,.31,.25,.61,.38,.91Z"/>
      <path class="cls-43" d="M176.63,100.41c.89-.35,1.84-.31,2.77-.41,.52-.05,1.38,.06,1.06-.98,.32-.31,.73-.29,1.12-.25,2.28,.2,4.53,.08,6.74-.54,.48-.14,1-.29,1.45,.12,.13,.23,.26,.46,.38,.69,.09,.49-.42,.63-.62,1.07,.97,.64,2.55,.93,1.93,2.7-1.22,.55-2.43,.09-3.66,.05-2.68-.09-5.37-.01-8.05,0-.32,.24-.64,.24-.95-.02-.72-.8-1.45-1.61-2.17-2.41Z"/>
      <path class="cls-28" d="M39.12,173.08c.36,4.88,.72,9.76,1.06,14.64,.06,.81,.15,1.69-1.09,1.67-1.49-.47-2.1-1.38-2.05-3.04,.06-1.92-.12-3.88-.49-5.77-.6-3.06,.63-5.37,2.57-7.5Z"/>
      <path class="cls-96" d="M184.94,192.08c-.95-1.75-1.59-3.61-2.31-5.94,2.11,.98,3.24,2.61,4.94,3.33,.1,.04,.17,.17,.28,.2,3.99,1.23,4.67,4.41,4.77,7.97,.05,1.65-1.16,.72-1.81,.95-.13-.48-.1-.99-.58-1.37-1.93-1.54-3.52-3.44-5.3-5.14Z"/>
      <path class="cls-28" d="M41.22,142.44c1.14,2.2,1.04,2.66-.81,4.21-3.83,3.21-7.36,6.74-10.81,10.35-.52,.54-1.04,1.45-1.84,.28-.12-.88,.39-1.52,.84-2.18,3.02-4.43,6.48-8.43,11.12-11.26,.6-.37,.96-.97,1.49-1.4Z"/>
      <path class="cls-47" d="M185.95,221.73c1.99,.09,3.92-.13,5.74-1.06,1.26-.64,2.6-3.34,2.29-4.81-.07-.09-.17-.21-.15-.29,1.05-3.21,.82-6.32-.68-9.34,1.3-.1,1.36-1.25,1.78-2.1,1.2,.38,1.28,1.55,1.71,2.46,.35,2.07,.94,4.16,.37,6.25-.18,.68,.87,.74,.38,1.34,.03,.11,.01,.2-.06,.29-.64,.45-.63,1.13-.62,1.81-.94,2.59-2.54,4.61-5.1,5.75-1.93,.86-3.85,.96-5.67-.3Z"/>
      <path class="cls-14" d="M178.8,102.82c.32,0,.63,.01,.95,.02,.42,2.85-.98,5.35-1.65,7.96-.88,3.41-2.44,6.62-4.02,9.79-.48,.96-1.29,1.2-1.9,1.82-.31,.52-.7,.88-1.36,.72-1.08-.6-.21-1.2,.08-1.66,3.38-5.53,5.74-11.5,7.68-17.65,.1-.32,.15-.66,.23-1Z"/>
      <path class="cls-13" d="M224.25,192.05c-2.88,2.54-6.2,4.46-9.32,6.66-3.88,2.72-7.84,5.34-11.79,7.97-.48,.32-.92,.95-1.67,.59-.51-.91,.38-1.05,.8-1.38,6.31-4.87,12.96-9.25,19.54-13.74,.56-.38,1.14-.75,1.71-1.13,.41-.24,.76-.16,1.01,.22,.25,.37,.04,.62-.28,.81Z"/>
      <path class="cls-13" d="M200.44,44.86c-2.71,.35-5.44,.63-8.14,1.05-4.33,.68-8.72,1.04-12.96,2.22-.82,.23-.95-.27-1-.88,.04-.87,.75-.93,1.34-1.07,6.57-1.55,13.25-2.35,19.98-2.85,1.69-.13,.74,.91,.77,1.53Z"/>
      <path class="cls-24" d="M194.27,140.34c.59,1.92-.94,1.23-1.75,1.43-2.51-.98-5.07-.56-7.62-.24-1.41,.18-2.94-1.08-2.98-2.44-.02-.69,.55-.84,.99-1.02,2.24-.91,4.51-1.3,6.8-.11,1.52,.79,3.04,1.58,4.56,2.38Z"/>
      <path class="cls-45" d="M49.1,192.72c-.47,.98,.48,1.26,.92,1.75,.57,.63,1.24,1.16,1.87,1.73,.74,3.1,1.19,6.29,3.08,8.99-3.09-1.31-5.5-3.39-6.98-6.42-1.2-2.46-.72-4.81,1.1-6.05Z"/>
      <path class="cls-23" d="M31.22,214.86c-3.05,2.02-1.35,5.05-1.61,7.67-.05,.49,.09,1.02,.23,1.51,.35,1.23,0,1.96-1.34,2.08-1.3,.02-1.9-1.01-1.97-1.92-.16-2.25-.64-4.52-.12-6.8,.3-1.33,.99-2.14,2.4-2.24,.52-.37,1.17,.05,1.7-.3,.24,0,.47,0,.71,0Z"/>
      <path class="cls-15" d="M32.49,230.28c.6,.04,1.21,.09,1.92,.14-2.85,1.51-2.75,1.51-2.9,4.96-.06,1.35,.68,2.58,.3,3.99-.15,.54,.97,.49,1.51,.76-.3,.34-.84,.06-1.05,.5-2.41,1.27-3.48,.62-3.53-2.1-.03-1.46-.21-2.93-.2-4.39,.02-2.85,1-3.77,3.96-3.86Z"/>
      <path class="cls-96" d="M41.22,142.44c.19,.95-.51,1.28-1.15,1.67-5.32,3.25-9.14,7.9-12.3,13.17-.93-.45-1.17-.96-.58-1.98,3.01-5.17,6.97-9.45,11.94-12.76,.52-.35,1.36-1.39,2.1-.09Z"/>
      <path class="cls-96" d="M36.78,136.26c1.8-3.59,4.2-6.76,6.99-9.64,.39-.4,.55-.85,.51-1.39,.82,.58,.84,1.23,.28,2.03-.88,1.26-1.62,2.63-2.56,3.84-1.22,1.56-1.75,3.32-1.81,5.24-.04,1.16,.16,2.32-1.56,2.48-.46,.04-.87,.68-1.42,1.14-.4-.98-.75-1.86-1.1-2.74,.2-.33,.27-.76,.68-.95Z"/>
      <path class="cls-6" d="M32.94,196.87c-.02,.05-.03,.13-.07,.15-2.55,1.18-1.97,3.48-1.99,5.56-.01,1.69-.05,3.37-.37,5.04-2.79-1.58-3.13-2.22-2.78-5.31,.03-.23,.03-.46,.04-.68,.24-3.98,1.11-4.77,5.18-4.75Z"/>
      <path class="cls-96" d="M43.68,266.17c-.15-2.74-.3-5.48-.45-8.22,2.36-.36,4.6,.61,7.28,.55-2.14,2.96-5.16,4.74-6.83,7.67Z"/>
      <path class="cls-96" d="M27.81,121.55c2.4,.88,4.7,2.12,6.83,3.68,.39,.29,.25,.61,.02,.88-.58,.7-1.21,1.37-1.8,2.06-.26,.3-.56,.41-.9,.2-2.19-1.38-4.41-2.73-4.85-5.61-.15-.98,0-1.23,.7-1.2Z"/>
      <path class="cls-13" d="M41.54,104.88c-4.19,2.43-8.59,4.27-13.55,3.7-1.94-.22-3.81-1.09-5.71-1.67-.43-.53-.85-1.06-1.28-1.58,7.33,3.12,14.32,2.11,21.21-1.38-.22,.31-.45,.62-.67,.93Z"/>
      <path class="cls-18" d="M175.68,184.8c-.04,1.12,.18,2.32-1.69,2.14-.99-.1-.91,1.01-1.06,1.68-.39,1.66-.73,3.33-1.06,5.01-.1,.52-.2,1.01-.74,1.27-.67-.48-.62-1.09-.49-1.83,.43-2.42,1.1-4.82,.54-7.32-.18-.8,.26-1.3,.92-1.66,1.06-.57,2.11-1.14,3.17-1.71,.68,.72,.15,1.64,.41,2.42Z"/>
      <path class="cls-8" d="M32.87,245.1c.37,.19,.72,.4,.55,.91-1.02,3-.23,6.09-.49,9.13-.42,.87-1.07,.69-1.75,.39-1.52-2.79-1.11-5.8-.84-8.73,.1-1.14,1.4-1.54,2.53-1.7Z"/>
      <path class="cls-83" d="M187.06,242.06c.32-2.07,.64-4.14,.97-6.22,.97-.88,1.93-1.77,2.91-2.63,.27-.24,.47-.75,.96-.5,.35,.18,.27,.6,.27,.93,.02,1.77,.02,3.53,.04,5.3-1.83,.84-3.96,1.21-5.14,3.12Z"/>
      <path class="cls-17" d="M296.98,185.89c.77,.5,.44,1.28,.29,1.85-.29,1.08-.05,1.89,.75,2.59-1.73-.16-3.39-.87-5.17-.68-1.02,.26-1.9-.11-2.73-.66,.97-1.18,2.03-2.3,2.66-3.72,.26-.6,.62-.75,1.18-.4,.84,.82,2.07,.53,3.02,1.02Z"/>
      <path class="cls-44" d="M170.82,123.13c.46-.23,.79-.7,1.36-.72,2.76-.06,5.45,.22,8.04,1.31,.69,.29,1.59,.11,2.39,.14-1.73,.83-3.59,1.4-5.18,2.51-.36,.25-.7,.27-1.1,.04-1.85-1.07-3.88-1.85-5.51-3.28Z"/>
      <path class="cls-96" d="M36.78,136.26c-.03,.46-.23,.79-.68,.95-.45-1.39-1.3-2.55-2.28-3.59-.75-.79-1.51-1.77-2.82-.62-.63,.55-1.43-.02-2.11-.24-1.25-.4-2.48-.87-3.52-1.7,.04-1.06-.41-2.22,.64-3.07,1.33,.96,2.7,1.87,3.99,2.88,1.46,1.15,2.74,1.11,4-.28,.26-.28,.64-.45,.97-.67,.1,.55-.38,.78-.62,1.15-.37,.56-.65,1.31-.13,1.73,1.15,.96,1.4,2.55,2.57,3.47Z"/>
      <path class="cls-13" d="M181.81,51.37c.26,.07,.52,.15,1.24,.35-4.64,1.18-6,4.51-6.68,8.35-.66,.36-1.51,.64-2.04,.19-.45-.38,.08-1.15,.24-1.74,.05-.16,.07-.34,.08-.51,.3-4.45,3.51-5.77,7.15-6.64Z"/>
      <path class="cls-78" d="M188.74,59.01c2.36-1.5,5.12-2.19,7.51-3.66,.81-.5,1.69-.92,2.45-1.52-.22,1.22-.48,2.44-.64,3.66-.1,.75-.39,1.13-1.17,1.15-2.72,.06-5.42,.57-8.16,.36Z"/>
      <path class="cls-9" d="M224.25,58.67c-.16-.34-.43-.4-.76-.29-.79,.03-1.78-.02-1.92-.84-.19-1.09,.06-2.3,.68-3.25,.3-.46,1.08-.14,1.63-.08,.95,.1,1.91,.22,2.79,.68,1.18,1.05,.51,2.19,.08,3.26-.43,1.08-1.39,.69-2.21,.59-.1,.01-.2,0-.28-.06Z"/>
      <path class="cls-1" d="M82.6,246.2c-1.81-1.45-3.73-2.71-5.92-3.54-.41-.16-.79-.49-1.09-.82-.76-.85-1.67-1.11-2.75-.84q.26-2.56,2.42-1.28c2.06,1.22,4.09,2.5,6.19,3.66,1.21,.67,1.58,1.55,1.15,2.82Z"/>
      <path class="cls-19" d="M178.36,129.04c.1,.87-.78,1.28-.95,2.03-.36,2.07-1.25,3.96-2.03,5.88-.21,.5-.65,.76-1.14,.94-1.33,.15-1.97,.04-1.08-1.56,1.05-1.89,1.78-3.96,2.64-5.96,.49-1.15,1.27-1.73,2.56-1.33Z"/>
      <path class="cls-96" d="M184.94,192.08c.71-.4,.85,.36,1.16,.64,1.62,1.43,2.94,3.2,4.76,4.42,.74,.5,.59,.98-.04,1.45q-2.69,.78-3.75-1.7c-.69-1.61-1.42-3.21-2.13-4.81Z"/>
      <path class="cls-87" d="M165.39,333.44c1.07,.2,2.01,.74,2.97,1.21,1.51,.73,1.41,2.05,1.28,3.4-.07,.75-.59,.4-.88,.36-2.98-.41-3.99-1.9-3.37-4.97Z"/>
      <path class="cls-39" d="M196.95,129.74c-.36,.38-.73,.14-1.1,.02-3.55-1.1-7.16-1.93-10.88-2.18-.71-.05-1.48-.03-2.06-.61,5.15-1.48,9.7,.12,14.04,2.77Z"/>
      <path class="cls-99" d="M175.68,237.58c.46-3.6,1.66-7.01,2.92-10.43-.13,4.36-.9,8.62-1.92,12.84-.69-.65-.29-1.76-1-2.41Z"/>
      <path class="cls-39" d="M174.23,137.89c1.17-1.3,1.4-3.03,2.07-4.56,.34-.77,.73-1.51,1.1-2.27,.39,.67,.74,1.38,1.69,1.37-.11,.32-.3,.64-.33,.97-.11,1.61-.81,2.89-2.09,3.86-.72,.59-1.54,.77-2.45,.63Z"/>
      <path class="cls-28" d="M40.2,198.24c-1.69-.68-2.84-1.64-2.79-3.74,.07-2.38,.1-2.51,2.35-1.67,1.02,1.3,1.07,2.93,1.39,4.44,.11,.52,.06,1.35-.96,.96Z"/>
      <path class="cls-94" d="M175.68,237.58c1.57,.29,.77,1.56,1,2.41-.36,2.29-.71,4.58-1.07,6.88-.09,.03-.18,.05-.27,.08-.1-.95-.31-1.84-1.41-2.13,.26-2.49,1.14-4.83,1.75-7.23Z"/>
      <path class="cls-10" d="M174.92,90.67c1.23-.05,1.56,.38,1.21,1.66-.43,1.57-.59,3.22-.82,4.84-.07,.49-.2,.88-.63,1.14-1.94-2.2-.81-4.57-.39-6.9,.21-.25,.42-.49,.63-.74Z"/>
      <path class="cls-51" d="M31.18,255.53c.62,.01,1.22-.02,1.75-.39,1.2,.19,2.32-.55,3.52-.3-.1,3.94-.43,4.11-3.83,2.07-.58-.35-1.16-.71-1.44-1.38Z"/>
      <path class="cls-66" d="M304.99,95.34c-4.51-2.23-9.05-4.39-13.25-7.17,4.61,2.03,9.28,3.96,13.25,7.17Z"/>
      <g>
        <path class="cls-96" d="M218.75,208.29c1.41,.81,2.5-.35,3.64-.72,4.15-1.32,7.98-3.43,11.95-5.2,8.83-3.94,17.78-7.53,27.12-10.09,1.8-.5,3.64-.87,5.61-.98-2.94,1.75-5.9,3.47-8.82,5.25-9.11,5.57-19.5,8.14-29.18,12.37-1.93,.84-3.92,1.53-5.86,2.35-.47,.2-1.65,.45-.29,1.19-2.42,.32-4.83,.66-7.25,.95-2.65,.33-5.31,.62-8.04,.8,3.69-2,7.26-4.23,11.12-5.92Z"/>
        <path class="cls-96" d="M39.12,173.08c.69-1.15,1.84-1.83,2.78-2.72,1.17-1.1,1.51-.28,1.65,.74,.18,1.3,.21,2.62,.39,3.93,.21,1.5-.69,2.5-1.51,3.51-.91,1.13-1.19,2.08-.03,3.29,.86,.9,1.1,2.04,.43,3.33-.58,1.1-.74,2.43-1.52,3.44-.53,.68-1.1,1.64-2.23,.78,.47-.88,.69-1.83,.56-2.82-.46-3.59-.2-7.23-.83-10.79-.16-.94-.09-1.82,.29-2.69Z"/>
        <path class="cls-96" d="M303.88,184.09c1.05-.57,2.2-.27,3.31-.36,.59-.05,1.01-.25,.69-.77-.76-1.25-.54-2.87-1.6-3.98,3.2,.26,6.37,.71,9.48,1.49,1.48,.37,2.7,1.24,3.65,2.46,.29,.37,.6,.8,.47,1.23-.18,.57-.79,.35-1.2,.34-4.93-.12-9.86-.27-14.79-.42Z"/>
        <path class="cls-96" d="M35.72,172.38c1.69-7.7,6.98-13.08,12.04-18.59,1.34,.86,.56,1.83,.03,2.64-2.48,3.75-4.93,7.53-7.7,11.09-1.18,1.53-2.22,3.17-3.33,4.76-.31,.45-.57,1.28-1.05,.11Z"/>
        <path class="cls-96" d="M34.23,118.05c1.61,.81,3.26,.87,4.94,.23,.39,.56,.85,1.09,1.15,1.7,.82,1.66-.94,2.04-1.64,2.78-.59,.62-.97-.52-1.23-.93-.9-1.42-2.46-2.25-3.21-3.78Z"/>
        <path class="cls-96" d="M31.53,138.66c-.03-.28-.05-.57-.09-.85-.05-.33-.23-.74,.14-.93,.51-.27,.67,.26,.88,.55,.48,.64,.93,1.3,1.38,1.95,1.41,2.04,1.28,2.7-.77,4.11-.8,.56-1.11,.31-1.15-.59-.04-.74-.1-1.48-.17-2.21-.07-.68-.17-1.36-.25-2.03,.01,0,.02,0,.04,0Z"/>
        <path class="cls-96" d="M40.2,198.24c1.05-.2,.57-.87,.44-1.44-.29-1.32-.58-2.65-.87-3.97,3.88,1.15,1.71,4.22,2.2,6.62-.86-.24-1.31-.74-1.77-1.22Z"/>
      </g>
      <path class="cls-86" d="M147.68,259.66c.74-.19,1.21,.34,1.76,.66,1.58,.56,2.45,1.92,3.5,3.09,.32,.9,1.53,1.59,.64,2.77-1.97-2.17-3.94-4.34-5.9-6.51Z"/>
      <path class="cls-39" d="M203.95,143.42c-2.81,.23-5.52,0-7.97-1.65-.59-.39-1.12-.74-1.37-1.42,3.1,1.07,6.15,2.26,9.34,3.07Z"/>
      <path class="cls-70" d="M218.08,50.37c-2.16,1.21-4.4,.54-6.61,.27-.63-.07-.67-.69-.65-1.23,1.89-.32,3.7,.13,5.5,.62,.52,.43,1.21-.03,1.75,.33h.01Z"/>
      <path class="cls-50" d="M183.15,179.36c.35-.14,.62-.37,.76-.73,1.49,1.49,2.98,2.98,4.47,4.46,.18,.33,.36,.66,.54,.99-2.26-1.2-4.16-2.79-5.78-4.73Z"/>
      <path class="cls-96" d="M26.01,127.99c-.58,.95,.2,2.18-.64,3.07-1.07-.66-2.49-1.02-1.46-2.88,.9-1.61,.77-1.68,2.1-.19Z"/>
      <path class="cls-30" d="M197.4,214.18c-.81-.35-.86-1.07-.7-1.75,.47-1.96-.62-3.89-.05-5.83,1.33,2.42,1.33,4.97,.75,7.58Z"/>
      <path class="cls-41" d="M51.95,209.19c.82,.63,2.57,.17,2.31,1.94-.15,1.01-.93,.65-1.49,.57-1.79-.26-.45-1.66-.82-2.51Z"/>
      <path class="cls-55" d="M224.53,58.73c1.99-.18,2.78-1.63,2.13-3.85,1.38,.88,1.68,1.89,.9,3.38-.78,1.49-1.93,.86-3.03,.47Z"/>
      <path class="cls-49" d="M234.32,111.4c1-.17,.96-1.52,1.95-1.72,.13,1.53-.21,2.89-1.53,4.3-.16-1.03-.29-1.81-.41-2.58Z"/>
      <path class="cls-36" d="M161.14,247.2c-.22,.02-.43,.03-.65,.05-.3-.87-1.05-.63-1.68-.7,1.56-.39,3.1-.91,4.74-.75-.39,1.17-1.53,1.06-2.41,1.4Z"/>
      <path class="cls-90" d="M241.14,67.63c-.46,.08-1.01-.19-1.36,.33-1.14-.05-2.15-.52-3.14-1.12,1.54,.05,3.08,0,4.5,.8Z"/>
      <path class="cls-34" d="M224.25,192.05c.44-.83-.16-.93-.73-1.04,.6-.45,1.2-.89,1.8-1.34,.68,1.15,.41,1.74-1.07,2.38Z"/>
      <path class="cls-49" d="M234.2,105.12c-.09,1.87,.37,3.73,.06,5.6-.37-1.86-.65-3.72-.06-5.6Z"/>
      <path class="cls-92" d="M263.84,33.86c-.54-1.49-.23-3.03-.23-4.55,.58,1.49,.25,3.03,.23,4.55Z"/>
      <path class="cls-92" d="M263.56,38.34c.07-1.39-.26-2.8,.29-4.15,.08,1.4,.33,2.8-.29,4.15Z"/>
      <path class="cls-74" d="M294.32,177.88c-.85,.01-1.7,.04-2.55,.02-.29,0-.59-.12-.38-.51,.06-.1,.3-.09,.46-.14,.72,.59,1.74,.04,2.47,.62Z"/>
      <path class="cls-101" d="M188.08,63.21c-1.03,.31-2.07,.34-3.13,.23,1.01-.47,2.07-.36,3.13-.23Z"/>
      <path class="cls-93" d="M118.12,267.89c.53,1.02,.31,2.09,.25,3.16-.45-1.02-.3-2.09-.25-3.16Z"/>
      <path class="cls-78" d="M185.98,59.31c.87-.58,1.83-.25,2.76-.3-.88,.49-1.83,.29-2.76,.3Z"/>
      <path class="cls-30" d="M196.73,216.28c-.44-.82-.15-1.4,.62-1.81,.03,.68-.17,1.29-.62,1.81Z"/>
      <path class="cls-90" d="M241.42,66.98c.45,.12,.77,.36,.87,.85-.44,.22-.83,.22-1.15-.2,.27-.14,.33-.37,.28-.65Z"/>
      <path class="cls-67" d="M184.6,239.64c.07-.72-.19-1.48,.33-2.13-.07,.72,.31,1.5-.33,2.13Z"/>
      <path class="cls-91" d="M258.72,216.88c-.62,.58-1.38,.31-2.09,.32,.64-.47,1.37-.34,2.09-.32Z"/>
      <path class="cls-97" d="M218.07,50.37c-.6,0-1.25,.25-1.75-.33,.6,0,1.22-.09,1.75,.33Z"/>
      <path class="cls-12" d="M30.51,214.85c-.5,.5-1.11,.31-1.7,.3,.53-.29,1.09-.44,1.7-.3Z"/>
      <path class="cls-17" d="M259.48,271.26c.03-.18,.15-.74,.22-1.3,.09-.67-.03-1.65,.66-1.81,.83-.2,1.3,.69,1.79,1.32,.83,1.07,1.37,2.27,1.64,3.56,.21,.98,.22,2.05-1.02,2.4-1.15,.33-2.18,.07-2.76-1.11-.4-.83-.62-1.72-.54-3.05Z"/>
      <path class="cls-17" d="M284.53,315.19c-.4,.24-.25,.66-.33,1-.75-1.62-.55-3.41-.91-5.11,.83,1.25,.82,2.74,1.25,4.11Z"/>
      <path class="cls-59" d="M302.83,51.81c-.64-2.14-.9-4.34-1.03-6.56-.27-1.47,.34-2.77,.86-4.07,.13-.34,.04-.91,.57-.95,.51-.04,.77,.45,1.05,.79,.45,.55,.3,1.17,.14,1.8-.36,1.35-.38,2.78-.07,4.08,.31,1.29-.25,2.45-.07,3.68,.07,.46-.19,1.12-.95,.64-.22-.13-.37-.31-.45,.08-.03,.17-.02,.34-.04,.51Z"/>
      <path class="cls-17" d="M247.37,12.79c-.23,1.17-1.04,1.57-1.98,1.69-.77,.1-1.48-.31-1.4-1.12,.1-1.12,1.15-1.33,2.05-1.49,.68-.12,1.21,.22,1.34,.92Z"/>
      <path class="cls-17" d="M242.08,24.49c-.34,0-.52,.03-.68,0-.9-.23-2.06-.57-1.81-1.61,.23-.93,1.35-.35,2.1-.27,.22,.02,.43,.15,.62,.27,.45,.29,1.28,.35,1.08,1.1-.18,.7-.95,.44-1.32,.51Z"/>
      <path class="cls-17" d="M227.67,22.38c-.31,.79-.85,1.22-1.7,1.15-.49-.04-.98-.27-.88-.83,.14-.81,.63-1.33,1.56-1.24,.59,.05,.97,.29,1.02,.92Z"/>
      <path class="cls-60" d="M245.65,193.54c-.55-.52,.09-.71,.32-.88,8.6-6.35,17.63-11.98,27.49-16.18,1.6-.68,3.32-1.04,5.5-1.18-3.58,2.92-6.85,5.58-9.52,8.87-5.77,2.21-11.55,4.4-17.31,6.64-2.18,.85-4.32,1.82-6.48,2.74Z"/>
      <path class="cls-57" d="M293.57,171.13c-1.42,.3-2.85,.59-4.27,.89,2.49-1.98,5.17-3.56,7.99-4.91,2.21-1.06,4.49-2,6.71-3.04,3.42-1.61,7.02-1.9,10.71-1.65,.34,.02,.69,.02,.91,.36-7.24,3.07-14.61,5.81-22.05,8.35Z"/>
      <path class="cls-17" d="M290.12,188.99c.99-.12,1.86,.27,2.73,.66,.11,.93-.26,1.51-1.21,1.69-.86,.15-1.6-.11-2.09-.8-.48-.69,.13-1.12,.57-1.55Z"/>
      <path class="cls-33" d="M185.03,163.05c.23-.21,.45-.42,.68-.63,.44,1.23,.87,2.46,.66,3.86-.45-1.08-.89-2.15-1.34-3.23Z"/>
      <path class="cls-56" d="M189.78,98.34c-2.24,.57-4.48,1.22-6.82,1.11-.83-.04-1.66-.28-2.49-.43-1.3-.85-.71-1.58,.17-2.24,3.37-2.52,7.14-4.35,10.93-6.13,.21-.1,.41-.21,.61-.32,.43-.13,.86-.25,1.29-.4,1.25-.45,2.51-1.57,3.8-1.07,2.26,.88,4.44,2.01,6.42,3.46,.23,.17,.08,.4-.13,.53-.63-.11-1.23-.06-1.83,.2-3.98,1.77-7.96,3.53-11.94,5.29Z"/>
      <path class="cls-62" d="M191.47,102.79c-.05-1.85-1.53-2.11-2.91-2.42,.3-.9,1.21-.79,1.6-1.34,.68-.24,1.36-.48,2.03-.72,.65-.43,1.44,.07,2.09-.32,.33-.03,.67-.05,1-.08,2.09-.17,4.18-.33,6.27,.42-.42,.97-1.28,1.02-2.02,1.23-3.16,.89-3.16,.88-3.51,3.92-.12,.49-.18,1-.36,1.47-.53,1.42-1.72,1.65-2.68,.45-.62-.78-1.02-1.74-1.52-2.61Z"/>
      <path class="cls-38" d="M196.03,103.49q0-3.49,3.27-4.35c.6-.16,1.24-.2,1.81-.67-1.92-.69-3.9-.35-5.82-.56,2.68-.68,5.29-.28,7.95,.42-1.91,1.34-4.04,2.08-6.07,3.02-1.08,.51-.5,1.57-1.14,2.13Z"/>
      <path class="cls-43" d="M194.29,97.99c-.66,.37-1.37,.36-2.09,.32,.62-.58,1.37-.38,2.09-.32Z"/>
      <path class="cls-17" d="M127.4,273.76c-.2,.43,.3,1.42-.58,1.28-1.08-.17-1.18-1.25-1.17-2.2,0-.56-.03-1.45,.68-1.32,1.13,.2,1.02,1.32,1.07,2.24Z"/>
      <path class="cls-98" d="M185.65,67.22c-2.56-.31-5.19-.19-8.07-1.1,2.36-.47,4.29-1.03,6.33-.93-.51,1.61,1.34,1.2,1.74,2.03Z"/>
      <path class="cls-26" d="M192.19,67.98c-.73,.08-1.47,.21-2.11-.31,.72,0,1.48-.28,2.11,.31Z"/>
      <path class="cls-78" d="M30.28,98.37c-7.25,0-12.52-5.34-12.51-12.66,.02-6.52,5.68-11.85,12.61-11.87,6.95-.02,12.29,5.44,12.26,12.53-.02,6.86-5.32,12-12.36,12Z"/>
      <path class="cls-68" d="M254.51,152.7c-2.94,1.96-5.82,4.02-8.9,5.76,2.67-3.73,6.18-6.33,10.6-7.77-.57,.67-1.13,1.34-1.7,2.01Z"/>
      <path class="cls-29" d="M152.94,263.4c-1.41-.75-2.18-2.23-3.5-3.09,.76-.09,1.41,.08,1.92,.73,.26,.34,.32,.29,.52-.42,.36,.92,.71,1.85,1.07,2.77Z"/>
      <path class="cls-31" d="M161.14,247.2c.66-.71,1.66-.83,2.41-1.4,.45,.24,.38,.68,.39,1.08-.74,.39-1.12,1.32-2.08,1.37,.41-.8-.09-.97-.72-1.05Z"/>
      <path class="cls-17" d="M136.66,269.74c.18-.55-.25-1.56,.6-1.52,.91,.03,.86,1.04,.85,1.78,0,.53,.16,1.31-.68,1.3-1.13-.01-.58-.99-.77-1.55Z"/>
      <path class="cls-59" d="M183.87,336.5c-.48-.47-.63-1.07-.7-1.71,.81-.08,1.04,.6,1.36,1.11,.34,.54,1.17,1.29,.48,1.73-.73,.47-.55-.93-1.15-1.13Z"/>
      <path class="cls-17" d="M283.45,19.07c1.8,.4,2.62,2.15,1.56,3.33-.52-1.11-1.04-2.22-1.56-3.33Z"/>
      <path class="cls-54" d="M170.85,207.52c-.11,.63,.47,.95,.66,1.45-1.05,.51-2.2-.13-3.25,.32-1,.32-2.03-.55-3.02,.08-.68-.21-1.14-.64-.94-1.38,.41-1.53,.88-3.04,1.35-4.56,.22-.7,.56-.71,1.09-.2,1.42,1.39,2.91,2.69,4.12,4.28Z"/>
      <path class="cls-100" d="M165.24,209.37c-.14-.58,.04-.84,.67-.74,.71,.12,1.43,.21,2.14,.31,.44,.4,1.25,.52,1.05,1.4-1.06-.13-2.03-.71-3.14-.63-.28-.03-.56-.05-.72-.34Z"/>
      <path class="cls-17" d="M169.09,210.34c-.19-.59-1.08-.65-1.05-1.4,1.16-.7,2.31-.34,3.47,.03,1.02,.94,2.43,1.38,3.49,2.77-2.21-.24-4.07-.73-5.9-1.4Z"/>
      <path class="cls-64" d="M193.16,206.23c2.56,3.01,2.2,6.28,.83,9.63-.9,1.35-1.91,2.57-3.42,3.3-2.1,1.01-3.95,.51-5.22-1.44-2.43-3.72-1.12-9.64,2.62-12.05,1.92-1.24,3.57-.63,5.2,.56Z"/>
      <path class="cls-13" d="M30,75.77c1.12,5.5,3.64,9.39,9.76,10.11-5.22,1.64-8.41,4.92-9.57,10.33-1.24-5.2-3.76-9.13-9.6-10.25,5.82-1,8.98-4.27,9.41-10.19Z"/>
      <path class="cls-42" d="M192.21,211.34c1.26,.78,.17,1.25-.24,1.81-.48,.18-1.03,.02-1.48,.34h.01c-1.24,.47-2.36-.31-3.55-.35-.64-.01-1.44-.49-.78-.89,1.49-.89,1.82-2.37,2.54-3.67,1.27-.45,1.66,.49,1.91,1.35,.25,.88,.71,1.35,1.6,1.42Z"/>
      <path class="cls-53" d="M186.94,213.13c1.22-.27,2.4-.12,3.55,.35-.23,.51-.42,1.05-.7,1.54-.27,.48-.53,1.21-1.18,1.03-.68-.19-1.2-.97-.93-1.6,.43-.97-.26-1.02-.75-1.32Z"/>
      <path class="cls-27" d="M192.21,211.34c-1.32,.42-1.67-.61-2.02-1.45-.3-.73-.59-1.33-1.49-1.32,1.48-.77,2.25,.25,2.4,1.34,.12,.87,.63,1.05,1.1,1.43Z"/>
      <path class="cls-77" d="M190.48,213.48c.31-.9,.89-.63,1.48-.34-.33,.83-.88,.69-1.48,.34Z"/>
    </g>
  </g>
</svg>